<?xml version="1.0" standalone="no"?>
<!DOCTYPE svg PUBLIC "-//W3C//DTD SVG 20010904//EN"
 "http://www.w3.org/TR/2001/REC-SVG-20010904/DTD/svg10.dtd">
<svg version="1.0" xmlns="http://www.w3.org/2000/svg"
 width="896.000000pt" height="1204.000000pt" viewBox="0 0 896.000000 1204.000000"
 preserveAspectRatio="xMidYMid meet">

<g transform="translate(0.000000,1204.000000) scale(0.100000,-0.100000)"
fill="#000000" stroke="none">
<path d="M3888 11828 c12 -14 30 -25 39 -25 13 0 13 3 -3 14 -11 8 -28 19 -39
25 -18 10 -18 8 3 -14z"/>
<path d="M3951 11797 c213 -178 301 -271 435 -460 223 -316 244 -374 261 -707
3 -69 7 -127 9 -129 2 -2 4 49 4 115 0 138 -14 268 -36 339 -23 70 -127 269
-177 335 -23 30 -39 57 -37 59 22 19 318 -32 365 -63 13 -9 30 -16 37 -16 38
0 338 -174 338 -196 0 -7 -12 -20 -27 -29 -46 -29 -155 -146 -201 -215 -30
-44 -33 -52 -11 -25 49 60 211 219 259 254 38 28 40 31 19 31 -13 0 -62 25
-109 56 -99 65 -201 118 -325 168 -87 35 -206 55 -334 56 -45 1 -47 2 -96 68
-27 36 -70 89 -94 117 -45 50 -265 245 -278 245 -3 0 -4 -2 -2 -3z"/>
<path d="M3960 11745 c13 -14 26 -25 28 -25 3 0 -5 11 -18 25 -13 14 -26 25
-28 25 -3 0 5 -11 18 -25z"/>
<path d="M4006 11690 c4 -8 29 -42 55 -75 65 -83 149 -217 143 -227 -3 -4 -33
-8 -67 -8 -124 0 -400 -59 -545 -116 -209 -82 -390 -190 -553 -329 -120 -103
-178 -178 -252 -328 -79 -161 -116 -261 -124 -339 -5 -51 -13 -68 -54 -121
-51 -65 -140 -191 -153 -217 -4 -8 0 -6 9 5 25 32 52 66 102 130 26 33 56 69
66 80 10 11 49 55 85 99 137 161 305 292 609 474 175 105 263 151 348 182 162
59 395 132 477 149 112 24 85 28 -33 5 -113 -21 -484 -146 -587 -198 -172 -86
-504 -296 -622 -394 -30 -25 -91 -81 -134 -124 -44 -43 -83 -78 -87 -78 -16 0
54 241 77 264 8 8 14 20 14 26 0 16 46 103 96 182 111 172 384 379 644 489 86
35 216 80 227 78 4 -1 15 0 23 4 8 3 29 8 45 11 17 2 59 11 95 20 82 19 256
36 291 30 20 -4 38 -26 76 -92 59 -100 93 -167 93 -181 0 -5 -10 -12 -22 -14
-13 -2 0 -5 27 -5 28 0 43 2 34 6 -10 4 -39 50 -67 102 -80 154 -178 318 -231
389 -57 74 -117 144 -105 121z"/>
<path d="M3768 11253 c7 -3 16 -2 19 1 4 3 -2 6 -13 5 -11 0 -14 -3 -6 -6z"/>
<path d="M5250 11116 c0 -2 30 -33 66 -68 127 -121 260 -290 346 -438 172
-296 285 -612 347 -973 29 -164 44 -419 39 -632 -3 -123 -1 -164 5 -130 5 28
9 142 9 255 0 362 -52 675 -173 1026 -78 229 -255 558 -376 701 -108 127 -263
280 -263 259z"/>
<path d="M4484 11050 c53 -61 63 -71 39 -35 -12 17 -34 41 -49 55 -19 17 -15
10 10 -20z"/>
<path d="M4273 11073 c9 -2 25 -2 35 0 9 3 1 5 -18 5 -19 0 -27 -2 -17 -5z"/>
<path d="M4556 10947 c3 -10 9 -15 12 -12 3 3 0 11 -7 18 -10 9 -11 8 -5 -6z"/>
<path d="M4563 10860 c0 -25 2 -35 4 -22 2 12 2 32 0 45 -2 12 -4 2 -4 -23z"/>
<path d="M4476 10788 c-145 -159 -394 -581 -557 -943 -94 -208 -148 -315 -149
-297 -1 29 192 574 212 599 5 7 8 18 6 25 -8 22 -149 -350 -215 -564 -13 -43
-27 -78 -31 -78 -4 0 -20 9 -37 21 -36 24 -94 55 -80 42 8 -7 88 -70 114 -90
2 -2 -2 -15 -9 -30 -7 -16 -12 -36 -11 -45 1 -11 -4 -18 -13 -18 -17 0 -216
55 -259 72 -32 12 -30 27 12 91 15 23 45 69 66 102 35 54 110 156 264 359 62
81 221 247 231 241 4 -2 12 7 18 20 19 42 -2 28 -80 -52 -197 -204 -383 -448
-572 -753 -43 -69 -221 -421 -331 -655 -93 -199 -181 -414 -236 -578 -18 -53
-36 -94 -40 -90 -3 5 -13 49 -22 98 -55 312 -45 964 17 1168 8 26 12 47 10 47
-7 0 -43 -77 -39 -82 3 -2 -2 -38 -10 -79 -8 -41 -20 -149 -27 -241 -7 -93
-15 -168 -18 -168 -10 0 -90 111 -90 124 0 17 30 105 61 176 49 115 71 178 52
151 -51 -71 -154 -354 -197 -541 -14 -58 -25 -93 -25 -79 -1 37 37 314 53 390
8 35 21 98 30 139 25 116 80 271 148 420 17 36 39 88 50 115 36 90 213 381
301 493 27 35 47 65 45 68 -3 2 -18 -12 -34 -33 -16 -20 -43 -53 -60 -72 -78
-91 -179 -261 -284 -481 -50 -103 -62 -120 -88 -120 -11 0 -12 34 -7 183 4
100 7 190 7 199 -1 10 23 37 51 61 101 85 384 269 414 270 7 0 25 14 40 31 16
17 19 23 7 13 -11 -9 -26 -17 -32 -17 -10 0 -71 -33 -172 -92 -122 -71 -288
-198 -386 -294 -61 -60 -92 -93 -70 -73 23 20 63 53 90 75 47 37 49 38 43 14
-3 -14 -9 -106 -13 -205 l-7 -180 -33 -37 c-18 -20 -37 -46 -43 -57 -19 -35
-51 -174 -51 -222 0 -42 -3 -48 -30 -59 -65 -27 -77 -45 -101 -146 l-22 -95
-51 -25 c-28 -14 -66 -37 -84 -52 -29 -24 -33 -34 -39 -96 l-6 -68 -63 -49
c-34 -27 -65 -56 -68 -65 -3 -9 -6 -49 -6 -89 0 -66 -3 -76 -27 -102 -16 -16
-36 -39 -45 -51 -10 -12 -28 -22 -40 -22 -41 0 -151 -36 -228 -75 -78 -39
-240 -154 -275 -195 -11 -13 12 1 50 32 157 124 257 177 406 216 l74 20 7 -26
c6 -20 2 -32 -16 -52 -68 -71 -96 -105 -96 -114 1 -6 10 0 21 14 44 53 91 100
102 100 6 0 -18 -29 -53 -65 -35 -36 -69 -65 -76 -65 -6 0 -23 -24 -39 -52
-15 -29 -34 -60 -41 -68 -11 -14 -94 -162 -113 -205 -5 -11 -12 -33 -16 -49
-3 -15 -8 -27 -9 -25 -4 4 8 129 18 189 4 25 0 19 -14 -20 -21 -62 -26 -178
-9 -249 10 -46 5 -66 -11 -41 -16 25 -12 -15 4 -55 9 -21 11 -37 5 -40 -9 -6
-13 3 -44 85 -11 27 -14 30 -14 13 -1 -23 45 -133 56 -133 3 0 12 8 19 18 13
16 15 16 34 -7 11 -13 20 -29 20 -37 0 -8 13 -56 30 -107 30 -93 30 -94 14
-148 -9 -30 -33 -86 -54 -126 -71 -133 -159 -337 -201 -463 -58 -176 -147
-551 -155 -651 -4 -55 -12 -90 -23 -103 -12 -13 -16 -41 -18 -105 0 -47 -6
-99 -12 -114 -6 -16 -11 -32 -11 -37 0 -15 -77 -63 -206 -130 l-122 -62 5 -38
c5 -33 2 -40 -28 -62 -19 -14 -72 -47 -119 -73 -324 -183 -417 -241 -521 -328
l-44 -36 26 -10 c34 -12 42 -46 22 -90 -13 -25 -14 -36 -5 -39 23 -7 12 -62
-34 -159 -26 -54 -50 -107 -54 -118 -4 -11 -12 -32 -19 -47 -6 -16 -8 -28 -5
-28 3 0 63 55 133 123 254 246 511 424 714 493 93 32 180 41 198 21 10 -10 22
-12 42 -6 47 13 27 -13 -32 -43 -63 -32 -75 -42 -41 -33 30 7 80 -9 80 -26 0
-6 -12 -25 -26 -42 l-26 -31 21 -17 c12 -10 21 -20 21 -25 0 -4 -44 -51 -97
-105 -53 -54 -94 -102 -90 -106 4 -3 15 0 24 8 20 17 186 89 204 89 8 0 7 -5
-2 -16 -8 -9 -12 -27 -11 -39 2 -16 -18 -49 -65 -106 -63 -78 -64 -81 -23 -46
51 44 215 125 307 152 57 17 65 23 94 69 l33 51 8 -44 c10 -58 -6 -92 -52
-107 -19 -6 -42 -23 -50 -38 -17 -29 -206 -189 -290 -245 -66 -43 -77 -56 -85
-100 -12 -65 -37 -110 -69 -131 -27 -16 -35 -29 -45 -77 -22 -101 -54 -155
-131 -218 -62 -51 -70 -61 -70 -92 l0 -35 42 41 c34 35 47 42 74 39 32 -2 35
1 64 60 35 68 84 114 167 156 96 48 111 30 68 -76 -5 -14 -2 -18 13 -18 36 0
33 -17 -6 -47 -21 -15 -72 -56 -113 -90 -41 -35 -121 -99 -179 -144 -58 -45
-152 -127 -210 -183 -58 -56 -118 -112 -135 -124 l-30 -23 42 20 c58 29 148
38 171 19 9 -9 28 -19 42 -23 34 -10 60 -34 60 -57 0 -32 -108 -248 -151 -302
-40 -50 -222 -239 -274 -284 -15 -13 -24 -26 -21 -30 4 -3 21 9 39 26 33 32
85 54 205 87 52 15 77 30 146 91 46 40 109 89 141 109 64 41 173 95 193 95 19
0 -23 -53 -59 -74 -16 -9 -29 -21 -29 -27 0 -5 -55 -62 -122 -126 -321 -306
-696 -685 -901 -911 l-47 -53 0 -939 0 -940 1516 0 c1007 0 1513 3 1509 10 -3
6 -1 10 4 10 6 0 11 -4 11 -10 0 -21 37 -9 50 16 13 23 15 24 27 8 7 -9 10
-21 7 -25 -3 -5 1163 -9 2595 -9 2070 0 2601 3 2605 13 5 10 7 10 12 0 3 -7
11 -13 17 -13 8 0 7 4 -1 12 -7 7 -12 19 -12 27 0 19 -66 130 -134 226 -102
143 -197 275 -209 287 -7 7 -28 33 -47 58 -19 25 -40 52 -47 60 -6 8 -43 56
-81 105 -38 50 -97 120 -131 158 -33 37 -61 71 -61 76 0 10 -281 287 -435 428
-66 61 -146 137 -177 169 -274 283 -249 253 -243 298 8 60 24 272 27 339 2 66
11 71 67 34 94 -62 153 -98 231 -142 47 -26 102 -60 123 -77 l37 -29 26 20
c80 63 278 336 440 607 139 232 221 414 254 564 7 30 23 79 36 108 14 30 44
104 69 165 69 175 100 247 134 315 36 70 145 360 156 413 10 49 35 131 46 151
12 23 95 312 104 363 4 22 22 96 41 165 59 221 76 322 81 502 3 92 2 179 -1
194 -4 15 -24 43 -45 63 -292 280 -394 374 -454 416 -74 51 -190 158 -407 375
-69 69 -147 143 -175 165 -27 22 -58 47 -68 57 -10 10 -56 37 -102 60 -90 44
-89 42 -100 140 -4 32 -12 61 -19 66 -6 5 -44 22 -85 38 l-73 29 6 66 c6 62 4
67 -22 91 -15 14 -90 68 -167 119 -198 131 -183 112 -177 223 2 52 2 106 -2
120 -11 46 -186 243 -278 313 -46 35 -225 174 -244 189 -8 6 -14 29 -14 53 0
44 -27 106 -81 186 -46 68 -198 225 -258 265 -28 19 -51 42 -51 50 0 9 14 51
30 94 35 91 80 247 79 273 -1 21 1 25 -40 -107 -37 -124 -100 -288 -161 -420
-70 -153 -280 -562 -285 -556 -3 3 4 33 15 68 12 35 26 108 32 163 7 55 21
154 32 220 11 66 21 161 24 210 4 89 4 90 -12 55 -9 -19 -35 -105 -57 -190
-43 -157 -61 -183 -32 -43 47 228 36 681 -25 1023 -5 30 -19 115 -30 189 -12
74 -24 139 -27 144 -3 6 -21 67 -39 136 -19 69 -31 106 -28 81 3 -25 15 -81
26 -125 11 -44 32 -143 48 -220 30 -154 30 -155 -32 -162 -16 -1 -60 -14 -100
-28 -76 -26 -108 -31 -108 -16 0 13 17 23 75 43 45 16 29 16 -34 1 -17 -4 -22
-2 -17 6 4 7 0 11 -11 11 -13 0 -15 3 -5 8 7 5 14 24 16 43 2 19 1 25 -1 14
-3 -11 -11 -24 -19 -28 -8 -4 -14 -18 -14 -31 0 -16 -14 -35 -42 -58 -66 -53
-258 -189 -258 -182 0 7 -19 -13 -48 -50 -27 -35 -19 -53 15 -31 31 21 40 13
21 -17 -15 -24 -13 -58 3 -58 5 0 17 19 26 42 l17 42 13 -40 c7 -21 15 -47 19
-56 3 -9 22 -24 41 -33 30 -14 39 -15 60 -4 24 13 93 113 93 136 0 25 -18 13
-25 -16 -3 -17 -23 -49 -44 -73 -36 -40 -40 -42 -65 -30 -30 14 -56 66 -63
128 -5 37 -2 43 25 63 l31 22 7 -35 c3 -20 12 -40 19 -46 18 -15 46 66 33 99
-10 29 3 47 50 67 45 18 79 19 64 1 -6 -7 -8 -24 -5 -37 6 -21 8 -19 17 20
l11 43 105 29 c58 15 108 28 112 28 23 0 -30 -217 -76 -312 -17 -38 -29 -68
-25 -68 11 0 64 115 84 180 9 30 25 84 36 120 10 36 19 72 19 80 0 8 3 10 9 5
15 -18 42 -268 52 -487 9 -215 9 -219 -16 -320 -14 -57 -31 -116 -37 -133 -28
-76 -97 -198 -161 -285 -140 -189 -534 -560 -624 -588 -74 -23 -254 -35 -350
-24 -73 9 -108 19 -186 57 l-96 46 -3 62 c-3 57 -5 63 -31 75 -31 15 -151 36
-297 53 -86 10 -132 27 -160 59 -3 3 -47 41 -99 84 -163 138 -333 349 -380
472 l-32 82 62 133 c34 74 75 163 91 199 16 36 59 124 95 195 36 72 71 140 77
152 16 33 26 25 51 -42 40 -109 62 -149 105 -198 23 -26 45 -45 48 -42 3 3 -9
20 -27 37 -77 75 -138 307 -97 363 13 18 15 18 77 0 77 -22 89 -31 89 -61 0
-32 47 -205 60 -218 5 -5 10 -18 10 -28 0 -11 5 -15 15 -11 9 3 24 -2 33 -10
26 -24 87 -47 123 -47 22 0 41 10 65 34 19 19 34 39 34 46 0 6 -15 -5 -34 -24
-40 -43 -79 -47 -145 -13 -66 34 -68 42 -37 138 36 115 43 123 51 63 13 -90
45 -114 62 -46 11 43 7 62 -13 62 -8 0 -14 6 -14 14 0 12 11 11 63 -6 34 -12
66 -28 71 -36 6 -10 10 -11 15 -3 17 27 181 -92 181 -131 0 -4 7 -8 15 -8 7 0
19 -8 24 -17 8 -14 10 -15 11 -3 0 8 -9 29 -20 45 -26 40 -25 42 11 37 22 -3
30 -1 25 7 -4 6 -15 11 -24 11 -9 0 -40 15 -69 34 -66 42 -244 179 -239 184 3
2 26 -9 53 -24 112 -63 193 -105 193 -101 0 3 -30 22 -67 43 -38 20 -100 56
-139 80 -39 24 -76 44 -82 44 -16 0 -16 4 14 61 23 46 68 148 119 269 38 90
234 476 252 495 10 11 29 40 42 65 50 94 186 290 198 286 7 -3 10 1 7 9 -6 14
31 66 89 128 15 16 26 31 24 34 -3 2 -30 -24 -61 -59z m-1809 -1160 c-20 -48
-99 -306 -112 -363 -31 -135 -33 -135 -46 1 -8 87 -6 108 12 174 22 81 55 142
97 177 29 25 57 31 49 11z m1149 -154 c18 -14 18 -15 -6 -9 -21 5 -20 3 9 -16
19 -13 29 -25 22 -27 -7 -2 5 -13 26 -23 41 -20 118 -83 93 -76 -8 2 -61 19
-117 38 -101 33 -127 55 -82 66 14 4 17 8 9 13 -9 6 -9 13 -1 29 14 25 21 26
47 5z m1203 -70 c-37 -40 -199 -166 -199 -155 0 11 63 65 155 134 70 53 77 56
44 21z m-1356 -14 c38 -10 47 -16 42 -29 -4 -9 -13 -37 -21 -62 -8 -26 -21
-64 -30 -85 -16 -39 -17 -39 -26 -14 -9 24 -47 186 -48 203 0 5 8 6 18 4 9 -3
39 -10 65 -17z m-1163 -197 c0 -17 4 -43 9 -56 6 -15 4 -51 -5 -103 -7 -43
-14 -97 -14 -119 0 -34 -6 -45 -40 -73 -28 -23 -40 -28 -40 -18 0 8 -6 19 -14
23 -8 4 -16 17 -20 28 -3 11 -3 -11 0 -50 4 -52 2 -67 -6 -59 -18 18 -15 297
3 366 21 75 32 95 70 118 l32 20 12 -23 c7 -12 12 -36 13 -54z m2293 42 c-3
-9 -8 -14 -10 -11 -3 3 -2 9 2 15 9 16 15 13 8 -4z m-2455 -329 c1 -57 6 -114
11 -128 8 -22 1 -32 -64 -99 l-74 -75 -13 50 c-7 28 -13 101 -13 163 0 100 2
114 20 127 11 9 26 13 33 11 6 -2 12 0 12 5 0 12 59 50 76 50 8 0 12 -34 12
-104z m292 41 c0 -5 -4 -5 -10 -2 -5 3 -19 1 -31 -6 -19 -10 -21 -9 -15 6 3 9
9 28 12 42 l7 25 18 -29 c10 -15 19 -32 19 -36z m-460 -220 c0 -18 6 -57 14
-87 l14 -54 -46 -53 c-44 -49 -47 -51 -54 -30 -5 19 -6 17 -7 -9 -1 -17 -10
-39 -21 -49 -18 -17 -19 -16 -26 10 -8 32 -10 133 -4 193 3 31 10 47 24 54 12
6 24 15 27 20 10 15 63 46 72 41 4 -2 7 -19 7 -36z m830 -142 c8 -20 5 -29
-13 -48 -12 -13 -32 -29 -44 -35 -21 -11 -21 -10 5 48 15 33 30 60 35 60 4 0
12 -11 17 -25z m-270 -255 c8 -60 13 -110 10 -110 -11 1 -70 88 -81 119 -10
28 -8 35 15 66 15 19 30 35 34 35 4 0 14 -49 22 -110z m457 -40 c77 -93 186
-200 276 -270 36 -28 52 -46 43 -48 -21 -5 -223 26 -266 40 -49 15 -170 100
-170 118 0 8 7 53 15 100 8 47 15 103 15 125 0 22 4 35 8 30 5 -6 40 -48 79
-95z m-262 -60 c75 -79 217 -191 273 -216 57 -25 71 -28 282 -58 109 -16 202
-30 388 -58 53 -8 82 -17 82 -25 0 -7 5 -13 10 -13 13 0 13 -62 -2 -157 -10
-67 -13 -74 -20 -48 -6 28 -7 27 -5 -7 2 -21 -1 -38 -5 -38 -4 0 -8 -10 -8
-23 0 -13 -13 -72 -30 -130 -30 -107 -36 -140 -20 -102 l9 20 0 -20 c0 -11 -6
-45 -14 -75 -8 -30 -15 -64 -14 -75 0 -11 15 39 34 110 18 72 44 173 58 225
14 52 28 114 32 138 4 23 10 42 15 42 4 0 41 -16 81 -35 91 -43 152 -55 288
-56 94 -1 178 10 267 37 19 5 12 -14 -49 -138 -61 -123 -71 -150 -70 -193 1
-27 6 -61 12 -75 8 -20 10 -10 9 50 -1 74 -1 77 71 222 l73 147 37 -47 c74
-93 96 -137 154 -305 77 -223 75 -215 36 -252 -21 -20 -33 -26 -36 -17 -6 17
-23 5 -23 -17 0 -23 -45 -58 -127 -100 -73 -36 -70 -36 -76 -13 -3 12 -5 11
-6 -6 0 -13 -12 -44 -26 -70 -14 -26 -25 -54 -25 -62 1 -8 8 1 16 20 21 49 41
68 101 96 29 14 92 56 141 93 111 85 113 86 105 65 -4 -11 -3 -15 5 -10 26 16
20 -17 -11 -57 -42 -55 -114 -219 -168 -382 -35 -104 -44 -123 -56 -114 -11
10 -18 8 -32 -8 -11 -11 -50 -28 -88 -37 -37 -10 -84 -21 -103 -26 -71 -17
-167 -23 -175 -10 -5 8 -1 16 9 22 24 13 83 109 91 149 5 25 -3 14 -31 -39
-40 -78 -57 -92 -143 -118 -25 -7 -47 -14 -48 -14 -1 0 -4 8 -6 18 -3 9 -5 0
-6 -20 -1 -37 -2 -38 -38 -38 -21 0 -53 -9 -71 -20 -42 -26 -50 -25 -50 3 -2
186 -1 321 3 325 5 5 -34 47 -221 243 -89 93 -135 159 -140 199 -5 36 23 142
61 235 36 86 57 167 74 280 6 39 13 89 16 112 l7 42 -44 5 c-24 3 -72 8 -108
11 -260 24 -484 89 -640 185 -121 75 -214 150 -218 176 -2 11 6 42 17 68 24
55 31 54 96 -14z m2373 -35 c22 -20 63 -66 90 -103 l49 -67 -28 -100 c-16 -55
-28 -102 -29 -105 0 -3 18 25 40 62 23 37 45 70 51 73 11 7 99 -45 99 -59 0
-15 -21 -78 -39 -115 -10 -20 -32 -42 -58 -56 -23 -12 -40 -25 -37 -28 3 -3
-9 -13 -27 -23 -63 -32 -147 -94 -185 -137 -89 -99 -194 -264 -194 -304 0 -8
19 -52 42 -99 22 -46 39 -86 37 -88 -2 -2 -31 -1 -64 1 l-61 5 -38 91 c-51
122 -57 143 -45 175 6 14 50 87 99 162 76 115 101 144 166 195 42 33 85 65 95
70 29 16 119 106 119 119 0 6 -16 27 -35 45 -20 18 -50 54 -67 80 -18 25 -50
67 -71 93 l-40 48 28 40 c18 27 33 39 43 35 12 -4 13 -3 2 10 -25 30 15 16 58
-20z m-3681 -462 c-3 -10 -5 -2 -5 17 0 19 2 27 5 18 2 -10 2 -26 0 -35z m18
-141 c-9 -9 -23 11 -30 43 l-7 30 22 -34 c11 -18 19 -36 15 -39z m3913 -569
c51 -35 104 -101 97 -122 -2 -9 -12 -56 -20 -106 -17 -98 -87 -385 -104 -425
-20 -49 -36 -60 -84 -60 -66 0 -67 -17 -2 -30 49 -10 55 -14 55 -36 0 -22 -36
-169 -45 -183 -2 -4 -15 -51 -29 -106 -53 -202 -67 -237 -103 -251 -18 -8 -48
-14 -68 -14 -29 0 -35 4 -35 21 0 18 -2 19 -15 9 -12 -10 -15 -10 -15 3 0 11
-8 15 -29 12 -34 -4 -47 15 -30 46 11 22 29 17 30 -9 0 -12 3 -10 10 7 6 15
15 21 24 17 8 -3 15 -1 15 3 0 32 -94 14 -103 -19 -8 -30 -32 -24 -92 23 -51
39 -55 45 -51 77 2 19 10 49 17 65 6 17 13 35 15 40 1 6 21 62 44 125 23 63
51 143 63 177 17 50 25 62 45 66 20 4 75 -7 89 -18 2 -1 -2 -17 -7 -35 -13
-47 -4 -69 36 -86 76 -32 107 -10 118 81 4 40 3 46 -6 30 -11 -19 -11 -19 -19
0 -7 19 -8 19 -15 -2 -10 -35 -24 -27 -17 10 l6 32 -21 -25 c-23 -28 -27 -18
-16 39 7 31 24 43 24 16 0 -18 16 -20 23 -2 4 7 8 3 13 -11 6 -21 7 -21 19 -5
19 26 -1 63 -35 63 -19 0 -31 -8 -41 -27 -7 -16 -20 -38 -27 -50 l-14 -22 -46
35 c-26 20 -50 43 -53 53 -6 15 5 72 23 121 5 14 10 32 39 135 6 22 21 83 33
136 25 103 78 215 105 222 9 3 48 5 87 6 62 1 76 -2 112 -26z m-393 -18 c48
-28 85 -79 85 -117 0 -53 -82 -339 -135 -470 -4 -9 -22 -24 -41 -33 -32 -15
-36 -15 -73 5 -24 12 -42 16 -46 10 -12 -19 -25 -10 -26 18 -1 16 -3 20 -6 10
-2 -10 -8 -18 -13 -18 -12 0 4 43 17 47 6 2 14 -6 18 -19 8 -22 8 -22 12 5 5
32 -11 57 -36 57 -9 0 -32 -14 -50 -31 -30 -27 -37 -29 -56 -19 -22 12 -45 49
-45 73 0 7 20 73 44 147 46 144 107 276 153 335 l28 37 64 -6 c42 -4 78 -14
106 -31z m590 -244 c72 -32 78 -49 77 -224 -1 -95 -8 -191 -20 -257 -16 -98
-19 -105 -42 -108 -14 -2 -32 -6 -40 -9 -8 -3 -18 -5 -22 -5 -5 1 -8 -6 -8
-15 0 -14 -2 -15 -9 -5 -4 7 -12 12 -17 11 -23 -4 -33 2 -27 17 3 8 11 13 18
10 7 -2 18 1 24 7 8 8 11 8 11 -1 0 -7 7 -12 15 -12 12 0 14 7 9 28 -9 33 -22
43 -54 40 -17 -2 -25 -9 -26 -23 0 -11 -5 -31 -11 -44 l-10 -25 -7 27 c-5 20
-13 27 -31 27 -32 0 -72 37 -56 53 6 6 11 23 11 38 0 15 4 39 10 53 7 20 56
235 96 425 4 20 9 22 35 17 17 -3 50 -14 74 -25z m-954 -390 c-2 -45 -1 -47
34 -64 19 -9 46 -17 59 -17 26 0 56 37 56 70 0 23 23 26 59 6 14 -8 31 -12 38
-9 7 3 20 0 27 -6 12 -10 12 -21 0 -73 -8 -33 -25 -88 -39 -122 -13 -33 -40
-108 -59 -165 -38 -112 -67 -153 -124 -178 -31 -13 -35 -12 -46 3 -8 10 -18
14 -25 10 -8 -5 -14 -1 -18 12 -4 17 -9 19 -29 12 -13 -5 -26 -5 -29 -1 -3 5
-14 7 -24 4 -24 -6 -35 11 -27 43 7 25 45 35 47 12 0 -7 4 -4 8 6 7 18 9 17
26 -12 22 -36 35 -41 35 -12 0 25 -49 70 -77 70 -21 0 -63 -35 -63 -52 0 -13
-43 -9 -62 5 -36 28 -32 59 30 244 66 195 103 279 136 305 20 17 22 17 45 -13
20 -24 24 -40 22 -78z m93 67 c-13 -46 -23 -55 -24 -22 0 31 6 44 22 44 5 0 6
-10 2 -22z m1071 -17 c22 -10 55 -35 74 -54 33 -35 34 -41 41 -134 4 -54 7
-123 6 -153 -1 -49 -3 -55 -23 -58 -13 -2 -23 1 -23 7 0 6 -6 11 -14 11 -8 0
-17 7 -20 16 -5 13 -4 14 7 6 13 -11 27 -7 27 9 0 7 -46 23 -67 22 -35 -1 -41
-5 -46 -24 -5 -18 -12 -20 -59 -17 l-53 3 -3 43 c-2 23 4 90 12 148 9 57 16
120 16 139 0 56 50 71 125 36z m-1133 -36 c3 -13 1 -22 -3 -19 -9 5 -13 44 -5
44 2 0 6 -11 8 -25z m-598 -39 c57 -24 112 -87 126 -144 20 -87 -23 -219 -115
-347 -19 -27 -43 -61 -52 -75 -40 -59 -137 -161 -159 -166 -35 -9 -30 -28 5
-21 31 7 52 -9 70 -53 7 -18 10 -20 10 -7 1 26 17 21 61 -19 28 -25 40 -44 40
-63 -1 -39 -33 -101 -77 -147 -21 -23 -45 -59 -52 -80 -7 -22 -15 -45 -17 -51
-3 -7 5 -17 18 -22 13 -5 37 -23 53 -41 115 -123 285 -237 490 -328 135 -61
178 -73 380 -109 274 -48 557 -37 687 28 60 30 52 37 -20 17 -157 -44 -433
-59 -597 -32 -252 42 -348 71 -526 160 -122 60 -313 192 -383 262 -56 58 -58
61 -51 100 4 23 23 63 45 93 37 48 76 147 71 177 -1 6 2 12 6 12 4 0 17 3 29
6 18 5 21 1 20 -28 -1 -19 -12 -47 -24 -62 -25 -32 -27 -54 -11 -140 15 -84
28 -137 26 -106 -2 32 10 33 48 4 28 -21 52 -29 161 -52 39 -9 45 -7 93 30 41
32 54 48 64 85 11 41 39 68 58 57 12 -7 -13 -119 -30 -139 -10 -11 -22 -31
-26 -45 -5 -18 -4 -21 4 -10 5 8 11 12 13 10 2 -3 16 -24 30 -46 39 -61 89
-88 172 -94 l70 -5 -58 -29 c-112 -56 -186 -51 -219 15 -9 19 -17 27 -17 18 0
-9 10 -31 23 -50 20 -30 29 -34 71 -37 59 -4 134 20 189 61 23 18 55 39 71 47
34 17 72 67 74 95 3 39 10 83 17 105 4 13 3 20 -2 17 -6 -4 -10 7 -11 23 0 16
-6 38 -12 49 -15 30 -82 61 -130 61 -34 0 -47 -7 -86 -45 -51 -51 -90 -60 -99
-22 -10 37 19 140 75 272 39 93 38 132 -1 44 -106 -235 -127 -274 -150 -277
-32 -5 -49 23 -49 83 0 40 -5 56 -22 73 -26 24 -105 61 -130 62 -9 0 -38 -25
-63 -55 -26 -30 -56 -55 -66 -55 -26 0 -42 36 -34 78 18 96 159 405 188 410 8
2 33 -8 55 -22 38 -24 39 -26 35 -69 -5 -42 -3 -45 30 -65 66 -41 101 -28 122
46 5 17 12 22 23 17 10 -4 42 -11 72 -17 30 -6 56 -12 57 -13 1 0 -9 -29 -23
-64 -32 -79 -23 -94 11 -18 18 41 30 57 44 57 11 0 23 9 26 20 7 22 20 26 30
10 4 -6 12 -7 18 -4 7 4 9 3 4 -1 -4 -5 2 -18 12 -29 17 -18 18 -28 12 -59 -5
-20 -5 -37 0 -37 4 0 13 -9 19 -21 11 -19 10 -20 -12 -8 -20 11 -21 10 -10 -3
16 -20 97 -51 119 -45 14 4 13 5 -4 6 -33 1 -28 17 4 16 20 0 33 9 48 31 17
27 24 31 53 27 20 -4 32 -1 32 6 0 6 5 11 11 11 5 0 7 -5 3 -11 -4 -7 0 -9 14
-5 31 10 33 -14 7 -116 -48 -194 -173 -448 -220 -448 -8 0 -15 -4 -15 -10 0
-5 9 -10 20 -10 11 0 20 4 20 9 0 5 9 11 20 14 33 8 25 -26 -24 -102 -25 -38
-57 -93 -71 -122 -25 -49 -26 -53 -9 -68 15 -14 16 -14 11 0 -5 17 85 204 99
204 5 0 10 -10 12 -23 2 -13 11 -26 20 -29 9 -4 29 -15 44 -26 22 -16 38 -19
102 -15 42 3 76 2 76 -2 0 -4 -22 -17 -50 -30 -27 -13 -48 -25 -46 -27 2 -3
37 12 77 32 75 36 144 94 155 127 3 10 10 18 16 18 5 0 23 9 38 20 l29 21 11
-21 c15 -28 -27 -111 -101 -198 -31 -37 -55 -69 -52 -72 5 -6 98 91 129 135
l20 29 29 -26 c27 -26 96 -50 119 -43 6 2 40 6 74 9 35 3 74 12 87 20 39 26
39 19 -1 -30 -21 -25 -61 -59 -88 -75 -28 -16 -44 -29 -35 -29 10 0 41 16 69
35 29 20 55 33 58 31 10 -11 -21 -65 -56 -98 -144 -135 -394 -247 -657 -292
-122 -22 -148 -21 -141 2 20 63 -215 141 -433 145 -118 2 -136 -6 -109 -54 18
-30 18 -30 -5 -24 -28 8 -41 13 -157 66 -53 24 -117 63 -144 87 -27 24 -66 55
-85 69 -77 55 -170 185 -197 272 -20 62 -4 90 66 118 52 21 53 22 22 23 -18 0
-42 -5 -53 -10 -10 -6 -19 -7 -19 -3 0 5 15 17 34 27 35 19 61 54 31 42 -26
-10 -16 12 13 30 45 26 141 184 112 184 -5 0 -10 12 -10 28 0 15 -5 34 -10 42
-8 11 -9 -1 -6 -40 7 -92 -46 -166 -139 -190 -27 -7 -54 -17 -59 -21 -14 -13
-83 -11 -109 2 -12 6 -32 20 -44 31 -15 14 -30 19 -46 14 -19 -4 -26 0 -35 19
-6 14 -8 24 -4 24 4 -1 16 -1 27 0 19 2 19 3 -2 11 -12 5 -24 18 -28 29 -3 11
-12 20 -18 18 -7 -1 -11 4 -10 11 2 6 -1 12 -5 12 -9 0 -35 50 -29 56 2 2 20
-1 41 -7 54 -15 70 -6 62 35 -6 33 -6 34 38 40 24 4 47 13 49 21 8 20 114 56
144 49 18 -5 24 -3 19 5 -12 18 -79 13 -147 -13 -64 -24 -64 -24 -101 -5 -53
27 -58 54 -29 163 8 33 6 46 -9 76 -15 30 -28 40 -65 50 -41 11 -48 11 -65 -5
-19 -17 -20 -17 -20 -1 0 10 4 26 10 36 10 19 164 152 313 270 45 36 114 91
152 122 65 54 74 57 123 58 29 0 68 -6 86 -14z m646 -28 c16 0 30 -4 30 -9 0
-5 -7 -9 -15 -9 -26 0 -85 28 -85 41 0 7 8 5 20 -6 11 -10 33 -18 50 -17z
m716 -138 c10 0 13 -15 13 -61 -1 -33 4 -66 9 -71 8 -8 9 -5 5 10 -5 20 -3 20
25 10 37 -14 58 -1 79 50 13 32 45 44 59 21 12 -20 7 -190 -10 -324 -27 -212
-24 -202 -61 -225 -42 -26 -45 -26 -45 10 0 17 -5 30 -12 30 -10 0 -10 2 -1 8
8 5 1 14 -22 27 -42 22 -49 18 -30 -19 20 -37 21 -83 2 -67 -10 8 -17 7 -25
-1 -20 -20 -26 1 -16 52 13 62 0 65 -26 6 -10 -24 -23 -47 -28 -50 -26 -16
-114 50 -125 93 -3 13 0 40 8 60 26 69 65 222 65 254 0 18 12 67 26 109 25 77
41 93 82 82 8 -2 20 -4 28 -4z m384 -126 c12 -32 13 -44 1 -44 -5 0 -13 9 -16
20 -4 11 -11 18 -16 15 -10 -7 -13 18 -2 28 12 13 24 7 33 -19z m-34 -39 c14
-9 23 -29 27 -55 7 -53 12 -58 45 -39 21 12 27 22 26 47 -2 37 16 42 45 13 27
-27 37 -163 23 -314 -12 -129 -31 -179 -58 -156 -8 6 -14 17 -14 23 -1 21 -38
56 -60 56 -13 0 -27 -11 -38 -31 -36 -65 -33 -64 -95 -35 -31 14 -57 32 -57
40 0 8 -7 17 -16 20 -12 4 -13 10 -6 19 6 6 12 41 15 77 14 177 31 286 49 312
25 37 80 48 114 23z m-2360 -166 c-15 -12 -30 -18 -33 -15 -8 8 27 35 46 36 7
0 2 -10 -13 -21z m66 -41 c3 -7 -6 -28 -19 -47 -13 -18 -23 -48 -23 -64 0 -29
-1 -30 -15 -11 -8 10 -15 29 -15 41 0 12 -7 29 -16 38 -13 12 -14 19 -4 30 17
20 31 19 23 -2 -5 -14 -1 -13 18 5 26 24 45 28 51 10z m1298 -22 c0 -3 -4 -8
-10 -11 -5 -3 -10 -1 -10 4 0 6 5 11 10 11 6 0 10 -2 10 -4z m-1285 -55 c-16
-32 -35 -41 -35 -17 0 19 43 72 48 58 2 -6 -4 -24 -13 -41z m-108 7 c-3 -8 -6
-5 -6 6 -1 11 2 17 5 13 3 -3 4 -12 1 -19z m648 -39 c3 -24 7 -68 11 -96 5
-47 3 -53 -13 -53 -29 0 -90 24 -112 44 -19 17 -19 18 19 52 20 19 48 49 61
68 13 19 25 33 27 32 1 -2 5 -23 7 -47z m1430 -49 c3 -5 1 -10 -4 -10 -6 0
-11 5 -11 10 0 6 2 10 4 10 3 0 8 -4 11 -10z m-2045 -37 c7 -21 23 -57 37 -80
13 -24 19 -43 14 -43 -12 0 -59 88 -72 132 -12 42 8 33 21 -9z m1780 1 c0 -8
-4 -12 -10 -9 -5 3 -10 10 -10 16 0 5 5 9 10 9 6 0 10 -7 10 -16z m290 -19 c0
-18 -4 -23 -15 -19 -16 6 -20 26 -8 37 13 14 23 6 23 -18z m-250 -1 c3 0 14
-4 25 -8 11 -5 25 -9 31 -11 8 -3 9 -17 3 -49 -12 -67 2 -92 56 -99 61 -9 91
9 106 61 8 30 20 47 40 57 33 18 53 19 43 4 -4 -8 0 -8 15 0 11 7 21 10 21 9
0 -2 -9 -43 -19 -93 -51 -241 -79 -321 -132 -379 -41 -45 -52 -45 -47 -1 2 19
1 35 -2 35 -3 0 -10 10 -15 23 -10 23 -86 67 -116 67 -9 0 -37 -16 -61 -36
-23 -20 -58 -44 -75 -52 -31 -15 -34 -15 -57 7 l-24 23 18 51 c10 29 34 93 53
143 20 49 43 121 53 160 16 68 47 110 69 96 5 -4 12 -7 15 -8z m126 -40 c-4
-9 -9 -15 -11 -12 -3 3 -3 13 1 22 4 9 9 15 11 12 3 -3 3 -13 -1 -22z m35 -17
c-10 -9 -11 -8 -5 6 3 10 9 15 12 12 3 -3 0 -11 -7 -18z m409 -39 c0 -4 -9 -8
-20 -8 -20 0 -28 29 -13 44 7 7 33 -21 33 -36z m-1732 14 c3 -9 -2 -13 -14
-10 -9 1 -19 9 -22 16 -3 9 2 13 14 10 9 -1 19 -9 22 -16z m1749 -14 c-3 -8
-6 -5 -6 6 -1 11 2 17 5 13 3 -3 4 -12 1 -19z m20 -20 c-3 -7 -5 -2 -5 12 0
14 2 19 5 13 2 -7 2 -19 0 -25z m-3906 8 c-6 -7 -68 -41 -138 -76 -71 -35
-168 -88 -218 -120 -119 -75 -115 -73 -115 -61 0 19 56 75 111 111 48 31 153
81 264 125 17 6 41 17 55 23 37 16 55 15 41 -2z m2424 -10 c38 -16 38 -17 29
-40 -7 -19 -44 -3 -44 19 0 8 -9 15 -21 15 -11 0 -17 5 -14 10 8 13 9 13 50
-4z m1375 -25 c0 -42 23 -62 63 -54 30 6 53 29 59 58 4 21 33 23 53 4 13 -13
11 -194 -4 -287 -12 -77 -37 -150 -48 -139 -3 4 -7 39 -9 78 -4 80 -20 114
-62 130 -42 16 -71 3 -88 -39 -39 -99 -51 -115 -106 -138 -45 -19 -56 -21 -73
-10 -23 16 -27 71 -8 126 20 58 53 192 53 217 0 13 9 32 20 43 11 11 20 27 20
35 0 13 12 15 65 14 l65 -2 0 -36z m-140 19 c0 -5 -4 -10 -10 -10 -5 0 -10 5
-10 10 0 6 5 10 10 10 6 0 10 -4 10 -10z m-2755 -40 c-2 -4 20 -5 50 -2 38 3
55 1 55 -7 0 -21 -30 -72 -39 -66 -5 2 -15 -3 -22 -12 -10 -12 -10 -14 -1 -9
18 11 15 1 -16 -44 l-28 -41 -190 -3 c-167 -3 -201 -6 -293 -30 -127 -32 -145
-41 -102 -49 25 -5 31 -12 31 -31 0 -14 -5 -28 -10 -31 -6 -4 -8 -15 -5 -24 6
-20 -43 -45 -235 -121 -125 -49 -130 -52 -217 -112 -37 -25 -126 -82 -198
-127 l-130 -80 -8 70 c-9 79 -7 83 90 196 51 57 204 173 231 173 6 0 12 11 12
24 0 19 10 27 56 45 32 12 60 19 63 15 3 -3 -10 -20 -30 -37 -35 -32 -56 -67
-40 -67 5 0 14 7 21 15 7 8 18 15 25 15 6 0 23 10 36 21 34 30 166 117 190
124 10 4 17 11 14 16 -3 5 0 7 7 4 7 -3 36 9 63 25 145 85 272 131 415 150 74
9 211 9 205 0z m1477 -9 c58 -25 105 -66 125 -110 9 -20 20 -43 24 -52 12 -26
-21 -79 -62 -100 -47 -23 -100 -24 -145 -3 -39 19 -134 101 -134 116 0 5 -7
16 -15 24 -20 20 -19 88 1 109 15 14 18 14 33 0 23 -20 31 -19 71 10 41 30 46
30 102 6z m1776 -50 c106 -71 246 -129 395 -162 31 -6 57 -16 57 -21 0 -4 8
-8 18 -8 10 0 32 -13 50 -30 49 -45 57 -47 138 -37 46 6 79 6 85 0 17 -17 22
-155 6 -203 -47 -141 -172 -448 -192 -469 -11 -11 -19 -3 -49 45 -84 140 -118
192 -155 244 -65 90 -226 332 -247 370 -10 19 -39 71 -65 115 -77 134 -109
195 -104 195 4 0 32 -17 63 -39z m-2969 -14 c35 -17 70 -41 78 -53 8 -13 17
-57 20 -98 l6 -76 -96 40 c-59 25 -127 45 -176 52 -106 15 -108 17 -77 67 15
23 24 47 20 53 -4 6 -3 8 4 4 6 -3 24 7 40 23 25 26 34 29 73 24 24 -2 73 -19
108 -36z m1749 -95 c2 -7 0 -12 -5 -11 -4 1 -10 0 -13 -1 -12 -6 -58 -5 -54 1
2 4 -1 9 -7 11 -9 3 -9 10 0 27 12 22 13 22 43 4 17 -10 33 -24 36 -31z m-75
-55 c92 -61 106 -145 33 -195 -61 -42 -145 -33 -228 24 -49 34 -65 80 -48 138
l12 43 66 9 c106 15 114 14 165 -19z m-1062 8 c30 4 49 3 54 -4 3 -6 -1 -11
-9 -11 -9 0 -13 -6 -10 -14 7 -19 -34 -46 -70 -46 -33 0 -76 34 -76 60 0 25 9
30 38 19 15 -6 48 -7 73 -4z m2054 -1 c29 -19 32 -39 9 -48 -30 -11 -42 -6
-47 21 -8 45 1 52 38 27z m-495 -46 c0 -10 -6 -11 -30 -5 -11 3 -20 10 -20 15
0 12 50 1 50 -10z m-10 -38 c32 -17 54 -50 42 -62 -8 -8 -7 -14 5 -23 26 -19
9 -58 -37 -84 -32 -18 -56 -23 -106 -22 -103 1 -174 43 -174 103 0 41 17 54
61 50 32 -3 46 2 76 27 33 27 43 30 78 25 22 -4 47 -10 55 -14z m519 -30 c12
-6 21 -14 22 -18 11 -79 8 -93 -24 -127 -27 -30 -43 -37 -102 -47 -62 -10 -76
-9 -118 7 -62 23 -100 59 -92 85 5 15 15 20 39 20 19 0 46 10 66 25 19 14 40
25 47 25 7 0 20 11 29 25 14 22 22 24 64 21 27 -3 58 -9 69 -16z m-2059 0 c0
-5 -5 -10 -11 -10 -5 0 -7 5 -4 10 3 6 8 10 11 10 2 0 4 -4 4 -10z m-60 -14
c0 -3 -4 -8 -10 -11 -5 -3 -10 -1 -10 4 0 6 5 11 10 11 6 0 10 -2 10 -4z m46
-43 c-3 -3 -12 0 -21 7 -13 11 -14 10 -8 -6 6 -17 5 -18 -11 -5 -15 13 -16 15
-2 23 9 5 21 6 26 3 6 -3 11 0 11 7 1 7 3 5 6 -5 3 -10 2 -21 -1 -24z m-6 -29
c0 -8 -5 -12 -10 -9 -6 4 -8 11 -5 16 9 14 15 11 15 -7z m-945 -10 c12 -5 13
-9 4 -14 -9 -6 -9 -15 0 -40 24 -71 18 -74 -159 -100 -41 -6 -76 -12 -77 -14
-2 -2 32 -6 74 -10 104 -9 124 -13 153 -24 21 -8 15 -11 -45 -17 -332 -33
-395 -56 -640 -236 -234 -171 -410 -284 -475 -304 -21 -7 -23 -6 -12 7 10 13
9 16 -9 21 -17 5 -20 11 -17 31 4 17 1 26 -8 26 -7 0 -16 17 -20 38 -4 20 -11
43 -17 50 -6 8 -6 12 1 12 16 0 62 -22 62 -30 0 -3 6 -14 13 -24 13 -18 16
-17 49 15 257 247 457 396 599 450 46 17 117 47 157 65 40 19 76 34 80 34 4 0
36 9 72 19 55 17 169 47 192 50 3 1 14 -2 23 -5z m199 -49 c20 -8 36 -19 36
-24 0 -9 -48 -23 -138 -41 -73 -14 -72 -15 -72 29 0 39 1 40 38 44 78 8 101 7
136 -8z m731 5 c3 -5 14 -10 24 -10 22 0 45 -33 54 -77 4 -18 23 -68 44 -110
32 -65 58 -99 158 -199 73 -75 149 -140 195 -170 77 -49 228 -174 244 -203 5
-9 15 -20 23 -24 22 -14 15 -34 -29 -77 -29 -28 -34 -36 -16 -25 17 11 28 13
33 6 3 -6 11 -11 16 -11 6 0 8 4 5 9 -4 5 3 7 13 4 13 -3 18 -10 14 -21 -5
-11 -2 -14 9 -10 9 4 20 2 26 -4 8 -8 15 -8 24 0 7 5 15 10 18 11 3 0 13 3 22
6 10 4 23 5 30 2 8 -3 6 -6 -5 -6 -15 -1 -17 -7 -12 -34 5 -26 2 -36 -17 -53
-23 -21 -69 -74 -148 -169 -23 -27 -51 -62 -63 -76 -12 -14 -47 -58 -77 -98
-30 -40 -82 -107 -115 -149 -128 -162 -315 -438 -384 -563 -44 -81 -51 -116
-25 -126 17 -6 23 -1 97 102 24 33 77 105 118 160 41 55 79 108 84 117 12 20
86 129 97 143 5 6 18 23 29 38 17 23 24 26 31 15 7 -9 8 -8 4 5 -4 13 9 38 41
80 73 94 85 107 95 101 4 -3 8 2 8 11 0 10 5 13 12 9 8 -5 9 -2 5 9 -4 12 5
25 28 44 19 16 35 32 35 37 0 18 142 205 161 211 10 4 19 10 19 15 0 4 20 29
44 53 24 25 45 50 47 56 2 5 11 11 18 13 8 2 24 13 36 25 12 12 26 18 33 14 8
-5 -11 -31 -56 -81 -37 -40 -85 -101 -107 -135 -22 -34 -62 -92 -90 -130 -27
-37 -80 -109 -117 -159 -37 -50 -75 -102 -86 -116 -63 -83 -270 -408 -283
-445 -2 -6 -33 -60 -69 -119 -53 -89 -80 -122 -149 -182 -91 -80 -211 -145
-297 -162 -57 -11 -244 -58 -290 -72 -17 -6 -38 -10 -47 -10 -9 0 -17 -5 -17
-11 0 -6 -44 29 -97 78 -54 49 -147 129 -208 177 -280 223 -285 227 -376 341
-105 130 -161 232 -211 380 -47 139 -32 344 35 479 54 109 138 237 172 264 33
26 92 29 138 7 l32 -16 -24 21 c-13 11 -33 20 -44 20 -15 0 -18 3 -10 11 30
30 124 -37 157 -110 46 -105 106 -149 180 -132 l41 9 -47 1 c-58 1 -101 35
-142 113 -66 122 -132 159 -221 122 -20 -8 -40 -13 -42 -10 -7 6 33 59 74 98
98 96 122 104 312 112 165 7 198 16 284 75 37 25 81 55 98 65 53 33 180 159
202 201 l22 40 3 -70 c5 -105 -45 -226 -162 -390 -97 -137 -146 -186 -309
-308 -67 -50 -71 -56 -17 -24 145 85 312 262 422 450 67 115 88 183 88 290 0
110 25 175 86 225 40 33 58 39 69 22z m163 -163 c51 -66 155 -150 259 -211 33
-19 80 -52 105 -73 62 -51 138 -150 140 -182 0 -14 2 -32 2 -39 1 -8 11 -22
24 -32 26 -21 28 -30 7 -30 -8 0 -15 5 -15 10 0 21 -118 117 -184 150 -36 18
-190 154 -269 238 -35 37 -69 87 -86 124 -32 70 -45 108 -38 108 3 0 28 -28
55 -63z m1576 -389 c9 -181 15 -299 15 -337 l1 -35 45 45 c63 61 145 164 145
181 0 35 15 23 41 -33 16 -34 29 -65 29 -71 0 -12 -11 -24 -154 -171 -108
-111 -192 -166 -237 -154 -23 6 -26 -18 -3 -27 15 -6 127 45 139 64 26 42 35
-75 14 -185 -9 -50 -8 -69 6 -116 16 -53 16 -58 0 -93 -21 -43 -40 -57 -110
-82 -61 -21 -101 -14 -117 21 -8 19 -6 41 13 107 21 75 24 107 26 328 2 150
-2 307 -10 405 -8 88 -12 162 -10 165 2 2 8 -2 13 -10 7 -11 10 -2 10 30 l0
45 58 22 c31 12 62 22 68 22 8 1 14 -39 18 -121z m-564 57 c10 -12 8 -16 -15
-25 -32 -12 -75 -13 -75 -2 0 7 52 37 71 41 4 0 12 -6 19 -14z m130 -205 c0
-5 -5 -10 -11 -10 -5 0 -7 5 -4 10 3 6 8 10 11 10 2 0 4 -4 4 -10z m-103 -36
c-3 -3 -12 -4 -19 -1 -8 3 -5 6 6 6 11 1 17 -2 13 -5z m-231 -11 c-11 -11
-119 -43 -146 -42 -25 0 -25 0 5 16 42 23 160 45 141 26z m260 -28 c-8 -8 -20
-15 -27 -15 -9 0 -8 4 1 15 7 8 19 15 27 15 12 0 12 -2 -1 -15z m-465 -12 c13
-16 12 -17 -3 -4 -17 13 -22 21 -14 21 2 0 10 -8 17 -17z m415 -45 c-9 -14
-12 -15 -18 -4 -5 8 -5 21 -2 30 4 12 9 12 19 3 9 -9 9 -16 1 -29z m907 -19
c20 -5 37 -14 37 -19 0 -13 -74 -50 -100 -50 -11 0 -20 -4 -20 -9 0 -9 33 -3
114 23 27 8 53 13 58 10 4 -3 8 0 8 5 0 34 84 -8 136 -67 25 -28 35 -87 24
-136 -4 -19 -5 -46 -3 -60 7 -34 59 -76 121 -99 42 -14 54 -24 71 -60 26 -54
26 -83 0 -155 -25 -69 -35 -108 -18 -72 l12 25 11 -38 c9 -28 23 -44 53 -62
32 -20 49 -42 82 -105 46 -90 48 -101 22 -149 -18 -33 -17 -35 5 -80 12 -25
34 -57 49 -71 41 -38 55 -73 55 -137 1 -32 7 -87 15 -123 22 -99 20 -109 -35
-175 -78 -96 -85 -101 -184 -133 -51 -17 -116 -44 -144 -61 -29 -17 -52 -28
-52 -25 0 4 -7 1 -15 -6 -23 -19 -56 2 -83 53 -30 56 -28 80 9 122 30 33 66
52 39 20 -9 -10 -9 -15 -1 -15 6 0 11 5 11 10 0 6 34 46 75 89 41 43 75 86 75
95 0 9 7 19 15 22 8 4 13 9 10 13 -7 12 17 81 28 81 5 0 7 -13 5 -29 -2 -17 0
-27 5 -24 4 3 7 24 6 47 -2 43 9 96 20 96 3 0 6 11 6 25 0 23 -1 24 -12 8 -7
-9 -34 -71 -60 -137 -42 -110 -52 -126 -107 -181 -34 -33 -99 -82 -144 -110
-46 -27 -113 -69 -150 -92 -37 -24 -73 -43 -80 -43 -7 0 -20 -7 -28 -15 -9 -8
-25 -15 -37 -15 -24 0 -93 70 -121 124 -19 36 -19 36 2 59 24 26 28 37 11 37
-5 0 -8 -4 -4 -9 10 -18 -27 -30 -54 -18 -49 21 -110 78 -122 114 -17 53 -6
95 55 199 31 52 56 98 56 102 0 4 9 18 19 31 14 19 22 21 37 13 14 -7 22 -6
32 4 11 12 7 14 -23 14 -73 0 -175 77 -175 131 0 36 63 255 100 346 15 39 36
109 45 155 10 48 30 106 47 138 32 56 57 144 63 215 9 102 15 138 26 151 14
17 50 18 102 3z m-1313 -15 c0 -8 -5 -12 -10 -9 -6 4 -8 11 -5 16 9 14 15 11
15 -7z m370 -19 c0 -1 -7 -8 -15 -15 -13 -10 -15 -9 -15 8 0 15 5 20 15 16 8
-4 15 -7 15 -9z m439 -93 c0 -49 -2 -54 -11 -32 -35 83 -48 92 -48 30 0 -34
-4 -41 -25 -46 -14 -3 -25 -10 -25 -14 0 -10 49 0 56 11 9 16 24 10 24 -10 0
-11 4 -22 8 -25 5 -3 8 -76 7 -163 -2 -176 -13 -223 -66 -267 -38 -32 -132
-68 -195 -74 l-51 -4 -1 134 c0 74 -5 160 -12 191 -14 67 -13 73 6 69 17 -4
177 38 170 45 -2 2 -28 -3 -57 -11 -64 -19 -135 -21 -142 -3 -3 9 13 12 63 13
37 1 76 7 86 13 17 11 17 12 -6 7 -14 -2 -47 -7 -75 -10 l-50 -6 65 21 c115
38 151 51 147 55 -2 2 -23 -2 -48 -10 -53 -17 -183 -51 -257 -67 -30 -6 -65
-22 -79 -35 -14 -13 -32 -24 -39 -24 -8 0 -14 -5 -14 -10 0 -6 12 -8 28 -5 27
6 27 6 -8 -25 -33 -29 -84 -50 -123 -50 -38 0 -9 24 41 36 29 6 56 15 60 19 4
4 -2 5 -13 2 -48 -14 -75 -19 -75 -13 0 3 15 28 34 54 32 44 39 48 98 59 l63
12 -57 -5 c-36 -3 -58 -2 -58 5 0 5 8 12 18 15 24 8 200 46 240 53 18 3 35 9
38 14 3 5 12 9 20 9 8 0 36 9 62 21 91 41 157 71 172 79 25 13 30 2 29 -58z
m371 46 c0 -13 -9 -65 -20 -115 -19 -91 -37 -138 -63 -165 -15 -15 -33 -60
-42 -105 -6 -33 -30 -61 -42 -49 -4 3 -1 56 7 116 7 61 13 130 14 154 1 39 8
51 66 114 36 39 68 71 73 71 4 1 7 -9 7 -21z m-960 -28 c0 -5 -5 -10 -11 -10
-5 0 -7 5 -4 10 3 6 8 10 11 10 2 0 4 -4 4 -10z m1484 -223 c75 -77 283 -344
335 -429 12 -21 25 -38 27 -38 8 0 -46 89 -94 158 -27 38 -39 62 -30 63 7 0 3
4 -9 9 -23 9 -32 40 -13 40 5 0 52 -20 103 -45 52 -25 98 -45 103 -45 21 1
-147 90 -168 90 -18 0 12 28 57 55 42 24 46 24 82 11 21 -8 65 -20 98 -26 90
-18 123 -37 195 -111 126 -130 200 -229 226 -301 25 -69 20 -398 -7 -501 -24
-86 -63 -134 -103 -122 -12 3 -42 8 -69 12 l-47 6 6 36 c9 50 15 53 60 37 27
-9 38 -19 36 -30 -4 -22 5 -20 18 3 30 57 56 268 53 426 -3 159 -35 210 -259
409 -103 92 -160 127 -188 117 -14 -6 -5 -14 45 -39 106 -53 340 -292 371
-379 19 -56 18 -305 -2 -311 -8 -3 -36 -25 -62 -50 l-48 -45 -1 34 c-1 22 -3
27 -7 14 l-5 -20 -8 20 c-5 12 -6 -3 -2 -35 7 -75 -37 -288 -57 -275 -4 3 -13
-9 -20 -25 -7 -16 -16 -28 -20 -25 -5 3 -6 -4 -3 -15 3 -11 1 -20 -3 -20 -12
0 -60 91 -56 106 1 6 -10 14 -25 17 -33 6 -43 0 -23 -14 11 -8 12 -12 3 -16
-7 -2 -13 -16 -13 -29 0 -35 -26 -83 -66 -122 -19 -17 -36 -32 -39 -32 -4 0
-91 63 -105 77 -3 2 3 9 13 14 9 6 15 14 12 20 -6 8 51 90 68 98 15 6 28 53
19 65 -13 16 -33 126 -33 183 0 66 -15 99 -70 160 -60 67 -67 96 -37 157 l22
46 -39 77 c-27 52 -51 85 -75 100 -61 41 -68 51 -75 97 -5 31 -2 60 10 95 9
30 14 63 10 79 -8 40 -59 98 -92 106 -51 13 -100 52 -107 87 -5 29 6 59 22 59
3 0 42 -37 86 -83z m-1263 -14 c20 -51 23 -75 23 -203 -1 -165 -9 -195 -64
-222 -51 -25 -62 -23 -46 7 24 46 2 365 -29 424 -14 29 -14 30 13 39 15 6 39
11 54 11 23 1 29 -6 49 -56z m-104 -219 c9 -186 6 -196 -65 -227 -68 -31 -132
-46 -189 -47 -39 0 -43 2 -43 25 0 14 -4 25 -10 25 -20 0 -11 -59 12 -74 25
-18 25 -18 -19 -40 -29 -14 -33 -15 -48 0 -10 10 -12 20 -7 28 8 10 -7 150
-22 210 -3 11 6 35 22 57 28 40 46 51 35 23 -5 -13 -2 -15 18 -9 39 12 59 27
27 20 -40 -8 -36 16 9 73 21 26 39 49 40 51 1 2 22 6 45 8 24 2 72 18 108 36
l65 32 8 -30 c4 -16 10 -89 14 -161z m-2560 -47 c3 -60 43 -188 80 -260 21
-39 66 -110 101 -156 34 -46 62 -87 62 -91 0 -5 19 -41 42 -82 45 -79 115
-168 188 -236 81 -78 218 -162 263 -162 13 0 17 -5 13 -16 -16 -40 -17 -65 -6
-79 18 -22 5 -30 -25 -17 -14 7 -34 12 -44 12 -24 0 -98 33 -173 77 -108 63
-263 226 -329 346 -16 28 -29 49 -29 46 0 -14 43 -103 70 -142 33 -49 170
-191 217 -226 18 -13 30 -28 26 -34 -3 -5 -1 -7 4 -4 6 4 25 0 42 -9 17 -8 66
-31 108 -50 52 -23 66 -33 43 -28 -19 3 -39 9 -45 13 -5 4 -25 8 -43 10 -41 3
-124 29 -99 30 10 1 16 5 12 11 -3 5 -12 7 -20 3 -10 -3 -15 1 -15 11 0 9 -6
16 -12 15 -27 -3 -38 1 -38 15 0 8 -5 18 -12 22 -8 5 -9 2 -5 -9 3 -10 2 -17
-3 -17 -6 0 -10 4 -10 10 0 5 -11 12 -25 16 -21 5 -23 9 -14 20 10 12 8 13 -6
8 -13 -5 -16 -3 -13 7 3 8 13 13 23 12 13 -1 14 2 6 10 -9 9 -17 8 -31 -1 -18
-11 -20 -10 -20 9 0 11 5 17 10 14 18 -11 11 5 -17 35 -14 17 -33 30 -42 31
-10 0 -12 2 -3 6 6 2 12 8 12 13 0 14 -32 21 -46 9 -10 -8 -14 -8 -14 0 0 6
-7 11 -15 11 -8 0 -15 5 -15 11 0 5 -10 9 -22 7 -17 -2 -30 9 -58 52 -49 74
-97 190 -115 275 -17 83 -18 88 -6 81 5 -3 12 -26 15 -51 8 -47 11 -51 36 -35
13 8 12 10 -2 10 -20 0 -24 15 -8 25 6 3 10 13 10 21 0 8 -4 13 -9 10 -5 -4
-12 7 -16 24 -4 16 -11 30 -16 30 -5 0 -9 5 -9 11 0 6 6 9 13 6 10 -4 13 2 10
21 -4 21 -2 24 6 12 6 -8 11 -23 11 -32 0 -9 4 -19 9 -22 8 -6 -4 68 -15 85
-3 5 -7 43 -10 86 -3 43 -6 87 -7 98 -1 11 3 19 11 18 15 -4 15 -2 2 33 -11
27 -4 71 8 59 4 -4 8 -21 9 -38z m1969 -26 c-9 -10 -14 -25 -11 -33 4 -9 -7
-29 -27 -49 -18 -19 -35 -39 -37 -44 -2 -6 -6 -16 -8 -22 -3 -7 -14 -13 -24
-13 -14 0 -19 -7 -19 -27 0 -22 -2 -25 -10 -13 -8 12 -10 10 -10 -9 0 -22 -36
-81 -64 -106 -6 -5 -21 -26 -34 -45 -15 -24 -22 -29 -22 -17 0 10 -5 15 -11
12 -6 -4 -5 2 2 14 10 14 15 17 21 8 5 -8 8 -6 8 6 0 10 7 20 16 24 10 4 12 8
5 13 -8 4 -3 16 14 34 14 15 25 30 25 33 0 6 43 60 87 110 10 12 27 37 38 56
12 23 23 33 33 29 10 -3 13 -1 8 6 -4 7 1 26 11 42 10 17 19 26 21 20 2 -6 -3
-19 -12 -29z m38 20 c3 -5 -1 -14 -8 -20 -12 -10 -13 -8 -9 8 6 23 9 25 17 12z
m962 -57 c-4 -10 5 -27 24 -45 l29 -30 -27 -10 c-405 -157 -743 -244 -1024
-263 -32 -2 -58 -2 -58 0 0 2 17 31 37 64 l38 60 55 1 c30 1 69 5 85 8 25 6
34 3 51 -17 17 -21 26 -24 57 -18 20 4 48 18 62 31 13 14 40 27 59 30 39 7
132 38 143 48 3 4 23 7 44 7 47 0 149 45 149 66 0 11 9 13 38 10 37 -4 138 25
198 57 37 21 48 21 40 1z m-803 -117 l2 -71 -79 -13 c-43 -8 -81 -12 -83 -9
-3 3 6 20 19 38 14 18 46 64 73 102 45 64 49 67 57 47 4 -13 9 -55 11 -94z
m-483 -276 c-5 -9 -15 -25 -24 -36 -13 -17 -15 -18 -16 -3 0 9 6 18 13 21 9 3
9 7 0 17 -8 9 -13 7 -19 -11 -4 -13 -7 -34 -5 -46 1 -11 -2 -24 -8 -27 -13 -8
-7 53 8 81 15 29 43 45 53 30 3 -6 3 -18 -2 -26z m-1741 -40 c0 -14 -1 -14 -6
-1 -3 8 -10 24 -15 35 -9 20 -9 20 6 1 9 -11 16 -27 15 -35z m30 -76 c0 -5 -4
-3 -9 5 -5 8 -9 22 -9 30 0 16 17 -16 18 -35z m-7 -40 c11 -22 20 -42 19 -45
-1 -2 3 -6 10 -9 7 -2 9 1 5 8 -4 6 -5 11 -2 11 9 0 38 -61 32 -67 -9 -9 -28
9 -61 62 -32 50 -62 131 -35 95 6 -8 20 -33 32 -55z m1648 51 c0 -3 -4 -8 -10
-11 -5 -3 -10 -1 -10 4 0 6 5 11 10 11 6 0 10 -2 10 -4z m-78 -98 c-7 -7 -12
-8 -12 -2 0 6 3 14 7 17 3 4 9 5 12 2 2 -3 -1 -11 -7 -17z m-1127 1 c4 -6 5
-12 4 -14 -7 -7 -59 8 -59 16 0 13 47 11 55 -2z m57 -56 c9 -10 15 -30 13 -45
-2 -19 1 -28 11 -28 9 0 12 -4 9 -10 -7 -11 -81 38 -90 60 -3 8 2 20 11 27 23
17 28 16 46 -4z m-383 -64 l14 -24 -27 24 c-14 14 -26 34 -26 45 0 21 0 21 13
0 6 -12 18 -32 26 -45z m451 -39 c0 -5 -2 -10 -4 -10 -3 0 -8 5 -11 10 -3 6
-1 10 4 10 6 0 11 -4 11 -10z m-270 -60 c0 -5 -2 -10 -4 -10 -3 0 -8 5 -11 10
-3 6 -1 10 4 10 6 0 11 -4 11 -10z m456 -63 c8 3 14 0 14 -6 0 -16 -33 -27
-38 -13 -2 6 -10 8 -18 5 -19 -7 -18 6 4 30 17 19 17 19 20 -1 2 -13 8 -19 18
-15z m-452 -16 c-2 -3 -12 3 -22 13 -16 17 -16 18 5 5 12 -7 20 -15 17 -18z
m516 -21 c0 -5 -2 -10 -4 -10 -3 0 -8 5 -11 10 -3 6 -1 10 4 10 6 0 11 -4 11
-10z m-4 -49 c-1 -16 -6 -27 -12 -24 -12 4 -7 53 6 53 4 0 7 -13 6 -29z m-349
-17 c-3 -3 -12 -4 -19 -1 -8 3 -5 6 6 6 11 1 17 -2 13 -5z m3763 -65 c0 -5
-12 -9 -27 -9 -27 1 -27 1 -9 15 19 14 36 12 36 -6z"/>
<path d="M3798 9423 c7 -3 16 -2 19 1 4 3 -2 6 -13 5 -11 0 -14 -3 -6 -6z"/>
<path d="M2061 8464 c0 -11 3 -14 6 -6 3 7 2 16 -1 19 -3 4 -6 -2 -5 -13z"/>
<path d="M3943 7790 c0 -25 2 -35 4 -22 2 12 2 32 0 45 -2 12 -4 2 -4 -23z"/>
<path d="M3831 7254 c0 -11 3 -14 6 -6 3 7 2 16 -1 19 -3 4 -6 -2 -5 -13z"/>
<path d="M3843 7150 c1 -42 14 -73 28 -64 6 3 9 0 7 -7 -3 -16 157 -178 256
-259 89 -72 100 -90 86 -138 -13 -47 -40 -182 -40 -202 0 -33 19 14 25 65 12
94 34 155 55 155 32 0 50 -39 40 -83 -4 -21 -10 -40 -12 -41 -1 -1 -14 -10
-28 -19 -13 -9 -20 -17 -15 -17 15 1 51 32 63 55 11 20 11 20 12 -1 0 -21 -30
-58 -66 -82 -10 -7 -5 -5 13 3 17 8 39 25 47 37 35 49 5 150 -49 164 -16 4
-25 13 -25 25 0 10 -9 24 -20 31 -31 20 -24 29 18 23 27 -4 32 -3 17 4 -11 5
-33 10 -50 11 -21 0 -46 15 -80 46 -27 25 -43 43 -35 41 8 -3 59 -20 113 -37
103 -33 167 -76 167 -111 0 -11 9 -36 21 -57 l21 -37 -6 44 c-11 72 -42 117
-99 141 -57 25 -174 66 -232 82 -27 7 -60 30 -101 70 -33 32 -63 55 -68 51 -4
-4 -5 -1 -1 7 3 8 -5 26 -18 40 -12 14 -28 41 -34 60 l-11 35 1 -35z"/>
<path d="M3806 7147 c3 -10 9 -15 12 -12 3 3 0 11 -7 18 -10 9 -11 8 -5 -6z"/>
<path d="M4395 7141 c-10 -33 -9 -91 3 -103 8 -8 11 6 9 55 -1 37 -3 67 -4 67
-1 0 -4 -8 -8 -19z"/>
<path d="M4299 6779 c14 -5 32 -15 40 -22 9 -6 8 -2 -3 11 -11 12 -29 22 -40
21 -19 0 -19 -1 3 -10z"/>
<path d="M4580 6684 c0 -10 5 -26 10 -34 8 -11 9 -7 4 15 -8 37 -14 45 -14 19z"/>
<path d="M4420 6531 c0 -5 5 -13 10 -16 6 -3 10 -2 10 4 0 5 -4 13 -10 16 -5
3 -10 2 -10 -4z"/>
<path d="M4400 6491 c0 -16 5 -33 10 -36 6 -4 10 6 10 24 0 16 -4 33 -10 36
-6 4 -10 -6 -10 -24z"/>
<path d="M4440 6494 c0 -3 9 -17 20 -31 12 -15 20 -20 20 -12 0 8 -9 22 -20
32 -11 9 -20 14 -20 11z"/>
<path d="M5314 8137 c21 -26 40 -47 43 -47 7 0 -56 78 -70 87 -6 4 6 -14 27
-40z"/>
<path d="M5380 8056 c0 -2 8 -10 18 -17 15 -13 16 -12 3 4 -13 16 -21 21 -21
13z"/>
<path d="M5204 6221 c1 -13 88 -51 116 -51 16 1 -48 28 -87 37 -12 3 -24 10
-26 17 -2 6 -3 5 -3 -3z"/>
<path d="M3701 5384 c0 -11 3 -14 6 -6 3 7 2 16 -1 19 -3 4 -6 -2 -5 -13z"/>
<path d="M4309 5060 c13 -11 31 -20 40 -20 9 0 3 8 -17 20 -41 25 -54 25 -23
0z"/>
<path d="M4439 5070 c-9 -5 -26 -11 -38 -13 -23 -4 -41 -17 -22 -17 16 0 81
28 81 34 0 8 -2 7 -21 -4z"/>
<path d="M4137 4883 c-12 -11 -7 -41 7 -46 10 -4 12 0 9 14 -9 33 23 22 64
-22 21 -23 59 -57 86 -76 26 -19 47 -38 47 -43 0 -16 -103 36 -146 73 -24 21
-44 36 -44 33 0 -13 68 -74 110 -98 123 -72 145 -27 41 85 -54 58 -152 103
-174 80z"/>
<path d="M5447 4763 c-10 -9 -9 -23 1 -23 5 0 9 7 9 15 0 17 -1 18 -10 8z"/>
<path d="M5255 4522 c-71 -21 -87 -30 -79 -43 4 -6 12 -5 22 4 16 15 114 37
156 37 21 -1 21 -1 2 -15 -11 -8 -30 -15 -43 -15 -13 0 -23 -5 -23 -11 0 -12
29 -5 73 18 70 35 -9 53 -108 25z"/>
<path d="M5223 4473 c9 -2 23 -2 30 0 6 3 -1 5 -18 5 -16 0 -22 -2 -12 -5z"/>
<path d="M5703 6059 c-6 -6 -26 -15 -45 -19 l-33 -8 32 -1 c26 -1 63 19 63 35
0 7 -5 5 -17 -7z"/>
<path d="M5440 5433 c0 -12 28 -38 34 -32 2 2 -5 13 -15 23 -11 11 -19 15 -19
9z"/>
<path d="M5576 5405 c-11 -8 -36 -15 -55 -16 -32 -1 -33 -2 -11 -8 35 -10 64
-3 78 20 14 23 13 23 -12 4z"/>
<path d="M6005 5388 c-5 -12 -18 -18 -39 -18 -22 0 -27 -3 -17 -9 28 -18 78 4
68 31 -3 10 -7 8 -12 -4z"/>
<path d="M2931 4904 c0 -11 3 -14 6 -6 3 7 2 16 -1 19 -3 4 -6 -2 -5 -13z"/>
<path d="M3828 4868 c-50 -41 -60 -116 -17 -138 17 -10 25 -6 55 25 33 36 42
71 28 109 -7 19 -44 21 -66 4z m14 -35 c2 -10 -5 -33 -16 -52 l-20 -34 -9 26
c-6 19 -4 33 9 51 19 30 31 33 36 9z"/>
<path d="M3918 4203 c-104 -107 -228 -248 -323 -368 -158 -199 -319 -443 -309
-468 3 -8 1 -18 -5 -22 -7 -4 -8 1 -4 12 15 43 -20 -9 -77 -117 -76 -142 -81
-166 -46 -207 36 -43 72 -50 104 -21 13 13 80 106 149 208 68 102 161 238 206
302 45 65 118 169 162 233 44 64 92 130 108 147 15 18 27 35 27 40 0 17 3 24
22 51 11 15 27 27 36 27 9 0 37 28 62 62 50 69 61 90 37 69 -10 -7 -17 -9 -17
-3 0 12 30 38 30 26 1 -5 8 4 16 19 8 15 12 37 9 48 -7 21 -53 49 -83 49 -11
0 -56 -38 -104 -87z m-564 -738 c-9 -14 -18 -25 -21 -25 -5 0 5 18 20 38 17
22 18 13 1 -13z m51 -222 c-133 -204 -166 -243 -196 -236 -44 12 -81 108 -49
128 6 3 10 -2 10 -13 0 -22 50 -72 72 -72 14 0 141 175 157 215 2 6 20 31 40
57 20 25 47 60 60 77 13 17 25 31 26 31 2 0 -52 -84 -120 -187z"/>
<path d="M2862 4085 c0 -16 2 -22 5 -12 2 9 2 23 0 30 -3 6 -5 -1 -5 -18z"/>
<path d="M4369 4011 c-125 -103 -368 -394 -625 -746 -50 -69 -124 -187 -159
-255 -23 -44 -85 -202 -85 -215 0 -11 64 -55 80 -55 22 0 70 31 70 45 0 18
304 474 362 541 24 28 61 73 83 100 22 27 74 87 115 134 41 48 95 111 120 140
25 30 65 77 90 105 134 151 142 167 87 173 -15 2 -27 7 -27 12 0 7 -61 50 -71
50 -3 0 -20 -13 -40 -29z m-83 -300 c20 16 17 -2 -5 -30 -17 -22 -41 -22 -41
0 0 6 5 7 12 3 7 -5 9 -2 5 8 -3 9 -3 19 1 23 4 3 8 1 10 -5 3 -8 8 -8 18 1z
m-36 -60 c-1 -15 -59 -73 -68 -67 -5 3 -13 -1 -16 -10 -4 -10 -2 -13 7 -8 8 5
8 2 -2 -9 -7 -9 -17 -14 -22 -11 -5 3 -9 -3 -9 -13 0 -25 -88 -135 -102 -127
-7 5 -8 3 -4 -5 8 -13 -22 -54 -34 -46 -4 2 -7 -1 -7 -8 0 -7 -21 -41 -48 -76
-26 -34 -85 -118 -130 -184 -44 -67 -88 -122 -96 -122 -8 -1 -13 -7 -11 -14 1
-7 -6 -24 -17 -39 -10 -15 -30 -51 -45 -80 -23 -45 -30 -52 -48 -46 -14 4 -18
2 -14 -5 11 -17 -15 -13 -36 6 -20 18 -26 41 -5 26 18 -15 75 4 82 27 4 11 11
20 16 20 5 0 9 9 9 19 0 11 3 21 8 23 4 2 17 21 29 43 12 22 27 39 32 38 6 -2
10 0 10 5 -1 4 -1 14 1 22 1 11 4 9 10 -5 8 -18 9 -17 9 7 1 40 22 80 38 74 8
-4 11 -1 8 5 -6 9 25 66 57 103 4 6 40 53 79 104 40 53 75 89 81 86 7 -4 8 -2
4 4 -3 6 12 35 35 64 22 29 57 74 77 101 20 26 42 47 49 47 7 0 12 3 11 8 -5
15 34 61 48 55 8 -3 14 -8 14 -12z"/>
<path d="M3686 2933 c-6 -14 -5 -15 5 -6 7 7 10 15 7 18 -3 3 -9 -2 -12 -12z"/>
<path d="M2892 3980 c10 -31 52 -70 72 -70 6 1 -1 7 -15 15 -15 8 -34 30 -43
50 -21 43 -29 46 -14 5z"/>
<path d="M3936 3983 c-12 -16 -14 -24 -6 -21 16 5 46 48 34 48 -5 0 -18 -12
-28 -27z"/>
<path d="M2680 3958 c-18 -13 -40 -34 -49 -48 -14 -24 -14 -24 11 3 32 32 42
34 33 8 -3 -11 -1 -22 4 -25 6 -4 -4 -36 -25 -78 -18 -40 -34 -79 -34 -86 0
-9 -6 -12 -16 -8 -8 3 -12 2 -9 -4 3 -6 21 -10 38 -10 88 0 189 172 147 251
-14 26 -59 25 -100 -3z"/>
<path d="M4715 3969 c-11 -16 -1 -19 13 -3 7 8 8 14 3 14 -5 0 -13 -5 -16 -11z"/>
<path d="M4505 3500 c-3 -5 -1 -10 4 -10 6 0 11 5 11 10 0 6 -2 10 -4 10 -3 0
-8 -4 -11 -10z"/>
<path d="M5475 4270 c3 -52 8 -166 11 -252 4 -87 10 -158 13 -158 7 0 -6 290
-19 415 l-9 90 4 -95z"/>
<path d="M5571 3588 c-1 -25 -4 -53 -7 -62 -4 -11 -1 -16 10 -16 12 0 16 9 15
38 -1 20 -5 48 -9 62 -7 21 -8 17 -9 -22z"/>
<path d="M5525 3473 c-7 -28 13 -53 42 -53 16 0 63 44 63 60 0 18 -15 11 -25
-12 -7 -15 -19 -23 -35 -23 -21 0 -25 5 -25 28 1 35 -11 35 -20 0z"/>
<path d="M5811 3719 c-1 -9 -8 -22 -16 -29 -8 -7 -14 -22 -14 -34 1 -20 2 -20
6 -1 3 11 12 28 20 37 8 9 13 23 10 30 -4 9 -6 8 -6 -3z"/>
<path d="M6122 3611 c-12 -43 -22 -89 -22 -103 0 -51 -32 -130 -90 -220 -33
-51 -77 -121 -99 -155 -22 -35 -38 -63 -36 -63 6 0 135 186 135 194 0 4 17 30
38 59 40 54 66 132 78 227 3 30 14 67 25 82 22 31 26 52 5 23 -13 -18 -14 -18
-9 8 11 55 -5 25 -25 -52z"/>
<path d="M5765 3609 c-4 -6 -5 -12 -2 -15 2 -3 7 2 10 11 7 17 1 20 -8 4z"/>
<path d="M6268 3193 c-20 -43 -50 -122 -68 -175 -31 -93 -36 -101 -114 -180
-44 -46 -114 -121 -155 -168 -40 -47 0 -9 90 84 175 181 168 170 224 347 8 25
23 57 33 70 16 20 38 99 28 99 -2 0 -19 -35 -38 -77z"/>
<path d="M5690 3041 c0 -6 3 -11 8 -12 4 0 21 -2 37 -4 20 -3 25 -1 15 4 -30
17 -60 22 -60 12z"/>
<path d="M5786 3005 c4 -8 10 -15 16 -15 5 0 6 -6 2 -12 -4 -7 2 -4 14 6 23
20 30 32 12 21 -5 -3 -19 -1 -30 5 -16 9 -18 8 -14 -5z"/>
<path d="M5598 2615 c6 -11 30 -38 53 -60 24 -22 35 -30 25 -17 -11 12 -14 22
-8 22 6 0 14 -4 17 -10 3 -5 16 -15 28 -21 15 -7 12 -3 -8 15 -29 25 -34 27
-56 30 -6 0 -22 15 -36 31 -14 17 -20 21 -15 10z"/>
<path d="M5814 2555 c-10 -8 -14 -15 -8 -15 6 0 17 7 24 15 16 19 9 19 -16 0z"/>
<path d="M5877 2339 c7 -7 15 -10 18 -7 3 3 -2 9 -12 12 -14 6 -15 5 -6 -5z"/>
<path d="M5370 3985 c-11 -13 -10 -14 4 -9 9 3 16 10 16 15 0 13 -6 11 -20 -6z"/>
<path d="M5138 3893 c7 -3 16 -2 19 1 4 3 -2 6 -13 5 -11 0 -14 -3 -6 -6z"/>
<path d="M5008 3853 c7 -3 16 -2 19 1 4 3 -2 6 -13 5 -11 0 -14 -3 -6 -6z"/>
<path d="M6820 3448 c0 -9 41 -78 46 -78 3 0 -2 12 -10 28 -21 37 -36 58 -36
50z"/>
<path d="M6875 3334 c1 -14 6 -29 12 -32 6 -4 18 -22 27 -40 10 -19 20 -32 22
-29 5 4 -54 127 -60 127 -1 0 -1 -12 -1 -26z"/>
<path d="M6962 3160 c30 -87 52 -140 55 -137 4 5 -45 138 -54 146 -3 4 -4 -1
-1 -9z"/>
<path d="M7032 2885 c0 -16 2 -22 5 -12 2 9 2 23 0 30 -3 6 -5 -1 -5 -18z"/>
<path d="M6862 2880 c0 -14 2 -19 5 -12 2 6 2 18 0 25 -3 6 -5 1 -5 -13z"/>
<path d="M6873 2785 c0 -33 2 -45 4 -27 2 18 2 45 0 60 -2 15 -4 0 -4 -33z"/>
<path d="M7031 2754 c0 -11 3 -14 6 -6 3 7 2 16 -1 19 -3 4 -6 -2 -5 -13z"/>
<path d="M7011 2644 c0 -11 3 -14 6 -6 3 7 2 16 -1 19 -3 4 -6 -2 -5 -13z"/>
<path d="M6987 2551 c-4 -17 -3 -21 5 -13 5 5 8 16 6 23 -3 8 -7 3 -11 -10z"/>
<path d="M6697 2496 c-5 -11 3 -14 39 -11 25 1 48 6 52 9 3 4 -7 6 -24 5 -16
-1 -36 1 -45 5 -10 5 -19 2 -22 -8z"/>
<path d="M4710 3495 c-7 -8 -31 -18 -54 -22 -22 -3 -34 -9 -26 -11 21 -7 29
-22 31 -57 1 -24 3 -21 11 18 7 34 15 47 28 47 9 0 25 9 35 20 15 17 16 20 3
20 -9 0 -21 -7 -28 -15z"/>
<path d="M4671 3344 c0 -11 3 -14 6 -6 3 7 2 16 -1 19 -3 4 -6 -2 -5 -13z"/>
<path d="M2422 3400 c0 -19 2 -27 5 -17 2 9 2 25 0 35 -3 9 -5 1 -5 -18z"/>
<path d="M2440 3314 c0 -8 5 -12 10 -9 6 3 10 10 10 16 0 5 -4 9 -10 9 -5 0
-10 -7 -10 -16z"/>
<path d="M2520 2762 c0 -5 7 -15 15 -22 8 -7 15 -9 15 -6 0 4 -7 14 -15 22 -8
9 -15 11 -15 6z"/>
<path d="M4530 10805 c-10 -33 7 -295 24 -385 8 -47 17 -100 18 -117 1 -18 6
-33 11 -33 5 0 6 12 3 28 -20 97 -39 257 -45 382 -3 80 -8 136 -11 125z"/>
<path d="M4471 10703 c11 -34 19 -42 19 -20 0 7 -7 22 -15 33 -13 17 -14 16
-4 -13z"/>
<path d="M4936 10634 c-36 -37 -66 -71 -66 -76 0 -5 10 2 23 14 64 68 128 120
136 112 5 -5 12 -23 16 -41 5 -25 3 -32 -12 -37 -10 -3 -31 -17 -48 -32 l-30
-25 48 27 c26 14 50 25 52 23 3 -4 26 -139 65 -389 7 -41 7 -42 9 -10 2 59
-61 432 -81 475 -6 14 -19 25 -28 25 -10 0 -47 -30 -84 -66z"/>
<path d="M3045 10670 c-3 -6 1 -7 9 -4 18 7 21 14 7 14 -6 0 -13 -4 -16 -10z"/>
<path d="M4452 10615 c12 -24 23 -43 26 -41 4 5 -36 86 -43 86 -3 0 5 -20 17
-45z"/>
<path d="M4492 10650 c0 -8 4 -26 8 -40 6 -20 8 -21 8 -5 0 11 -3 29 -8 40 -5
12 -8 14 -8 5z"/>
<path d="M2964 10635 c-10 -8 -14 -14 -9 -14 6 0 19 6 29 14 11 8 15 15 10 15
-6 0 -19 -7 -30 -15z"/>
<path d="M4350 10502 c0 -5 12 -19 27 -33 l27 -24 -23 33 c-23 32 -31 39 -31
24z"/>
<path d="M4410 10491 c0 -6 4 -13 10 -16 6 -3 7 1 4 9 -7 18 -14 21 -14 7z"/>
<path d="M4739 10443 c-20 -21 -48 -60 -63 -88 l-28 -50 26 30 c14 17 25 35
26 41 0 6 18 32 41 58 49 55 47 61 -2 9z"/>
<path d="M4280 10436 c0 -3 9 -10 20 -16 11 -6 20 -8 20 -6 0 3 -9 10 -20 16
-11 6 -20 8 -20 6z"/>
<path d="M4812 10390 c-95 -67 -93 -74 3 -10 66 44 84 60 72 60 -2 0 -36 -23
-75 -50z"/>
<path d="M4591 10374 c0 -11 3 -14 6 -6 3 7 2 16 -1 19 -3 4 -6 -2 -5 -13z"/>
<path d="M4300 10377 c8 -8 100 -47 100 -42 0 3 -12 11 -27 18 -32 17 -81 32
-73 24z"/>
<path d="M4390 10362 c8 -5 26 -13 40 -16 17 -5 20 -4 10 2 -8 5 -26 13 -40
16 -17 5 -20 4 -10 -2z"/>
<path d="M4243 10353 c9 -2 23 -2 30 0 6 3 -1 5 -18 5 -16 0 -22 -2 -12 -5z"/>
<path d="M4795 10310 c-16 -16 -27 -30 -24 -30 2 0 33 12 69 26 36 13 52 23
35 20 -16 -2 -39 -8 -50 -12 -18 -7 -18 -6 -6 9 22 28 7 19 -24 -13z"/>
<path d="M4520 10311 c0 -5 7 -15 17 -22 15 -13 15 -12 4 9 -12 23 -21 28 -21
13z"/>
<path d="M4861 10299 c-13 -5 -22 -12 -19 -14 3 -3 18 -1 34 6 16 6 45 8 64 5
19 -3 42 -1 50 4 20 13 -97 12 -129 -1z"/>
<path d="M4664 10284 c-18 -14 -18 -15 4 -4 12 6 22 13 22 15 0 8 -5 6 -26
-11z"/>
<path d="M5238 10258 c3 -24 16 -67 29 -98 19 -44 22 -48 17 -20 -8 43 -43
160 -48 160 -2 0 -2 -19 2 -42z"/>
<path d="M5133 10110 c0 -25 2 -35 4 -22 2 12 2 32 0 45 -2 12 -4 2 -4 -23z"/>
<path d="M5291 10084 c0 -11 3 -14 6 -6 3 7 2 16 -1 19 -3 4 -6 -2 -5 -13z"/>
<path d="M5223 9985 c0 -33 2 -45 4 -27 2 18 2 45 0 60 -2 15 -4 0 -4 -33z"/>
<path d="M5144 9805 c0 -115 2 -161 3 -102 2 59 2 154 0 210 -1 56 -3 8 -3
-108z"/>
<path d="M5213 9885 c0 -22 2 -30 4 -17 2 12 2 30 0 40 -3 9 -5 -1 -4 -23z"/>
<path d="M2427 9879 c-15 -9 -53 -69 -44 -69 2 0 18 18 36 40 17 22 31 40 29
40 -2 0 -11 -5 -21 -11z"/>
<path d="M5202 9815 c0 -16 2 -22 5 -12 2 9 2 23 0 30 -3 6 -5 -1 -5 -18z"/>
<path d="M5181 9704 c-6 -37 -10 -68 -8 -71 3 -2 10 26 17 62 7 36 10 68 8 70
-3 3 -10 -25 -17 -61z"/>
<path d="M5300 9619 l-35 -31 32 22 c29 19 50 40 41 40 -2 0 -19 -14 -38 -31z"/>
<path d="M5217 9565 c-20 -14 -37 -28 -37 -30 0 -6 69 36 76 46 8 14 2 11 -39
-16z"/>
<path d="M4141 9280 c24 -21 48 -39 53 -40 5 0 -11 18 -35 40 -24 21 -48 39
-53 40 -5 0 11 -18 35 -40z"/>
<path d="M4210 9212 c0 -4 15 -13 33 -20 l32 -12 -25 20 c-27 21 -40 25 -40
12z"/>
<path d="M5947 9168 c-9 -67 -7 -119 2 -65 10 60 25 44 43 -45 11 -52 15 -65
12 -33 -6 60 -33 177 -44 188 -4 4 -10 -16 -13 -45z"/>
<path d="M4356 9194 c-4 -9 -4 -19 -1 -22 2 -3 7 3 11 12 4 9 4 19 1 22 -2 3
-7 -3 -11 -12z"/>
<path d="M6012 8910 c0 -19 2 -27 5 -17 2 9 2 25 0 35 -3 9 -5 1 -5 -18z"/>
<path d="M6021 8783 c1 -34 2 -35 9 -13 11 36 11 50 0 50 -5 0 -10 -17 -9 -37z"/>
<path d="M4721 8788 c-1 -4 13 -42 30 -85 36 -91 34 -107 -24 -183 -72 -94
-74 -97 -37 -66 57 46 113 135 106 168 -6 29 -74 179 -75 166z"/>
<path d="M4651 8404 c0 -11 3 -14 6 -6 3 7 2 16 -1 19 -3 4 -6 -2 -5 -13z"/>
<path d="M4886 8381 c-10 -11 -42 -29 -72 -41 -30 -13 -53 -25 -50 -27 2 -3
13 0 24 6 45 24 26 -28 -20 -55 -160 -92 -324 -122 -601 -110 -168 7 -228 20
-284 62 -17 13 -36 24 -41 24 -5 0 -16 7 -23 17 -13 14 -11 16 11 11 14 -3 52
-13 85 -23 33 -9 105 -18 160 -20 l100 -4 -80 9 c-44 5 -102 14 -130 20 -70
15 -207 70 -225 90 -8 10 -26 23 -39 30 -23 12 -23 11 -17 -16 4 -16 14 -36
21 -44 8 -9 21 -33 30 -54 23 -55 123 -214 162 -257 41 -45 90 -64 238 -90
112 -19 246 -23 300 -8 18 5 -5 6 -60 3 -70 -4 -123 0 -239 21 -162 28 -189
38 -238 89 -31 32 -90 122 -103 156 -9 26 18 54 47 47 20 -5 27 -15 32 -45 13
-85 90 -112 339 -119 201 -6 360 8 447 39 68 25 80 40 80 100 0 37 4 50 19 58
28 15 39 13 51 -10 8 -15 5 -33 -15 -81 -14 -34 -23 -64 -22 -66 4 -3 81 167
108 237 7 19 20 40 28 46 9 7 10 13 4 17 -6 4 -18 -2 -27 -12z"/>
<path d="M1910 8380 c-9 -6 -10 -10 -3 -10 6 0 15 5 18 10 8 12 4 12 -15 0z"/>
<path d="M4728 8303 c7 -3 16 -2 19 1 4 3 -2 6 -13 5 -11 0 -14 -3 -6 -6z"/>
<path d="M4670 8290 c-18 -12 -2 -12 25 0 13 6 15 9 5 9 -8 0 -22 -4 -30 -9z"/>
<path d="M4328 8223 c7 -3 16 -2 19 1 4 3 -2 6 -13 5 -11 0 -14 -3 -6 -6z"/>
<path d="M4188 8213 c6 -2 18 -2 25 0 6 3 1 5 -13 5 -14 0 -19 -2 -12 -5z"/>
<path d="M1455 8149 c-58 -44 -65 -54 -21 -31 21 11 45 30 53 41 18 26 16 26
-32 -10z"/>
<path d="M1447 8113 c-4 -3 -7 -13 -7 -22 1 -13 3 -13 11 2 11 19 8 33 -4 20z"/>
<path d="M1350 8090 c0 -6 -19 -31 -41 -55 -62 -67 -43 -63 26 6 50 50 56 59
37 59 -12 0 -22 -5 -22 -10z"/>
<path d="M1432 8050 c0 -14 2 -19 5 -12 2 6 2 18 0 25 -3 6 -5 1 -5 -13z"/>
<path d="M4745 8049 c-4 -6 -5 -12 -2 -15 2 -3 7 2 10 11 7 17 1 20 -8 4z"/>
<path d="M1421 7934 c1 -43 5 -90 10 -104 5 -16 7 12 4 74 -6 120 -15 141 -14
30z"/>
<path d="M1477 7953 c-12 -18 -21 -133 -10 -133 5 0 18 -39 28 -87 10 -47 21
-81 23 -74 2 7 -2 33 -9 59 -7 26 -15 92 -18 147 -3 55 -9 95 -14 88z"/>
<path d="M4548 7923 c7 -3 16 -2 19 1 4 3 -2 6 -13 5 -11 0 -14 -3 -6 -6z"/>
<path d="M4493 7913 c9 -2 23 -2 30 0 6 3 -1 5 -18 5 -16 0 -22 -2 -12 -5z"/>
<path d="M1560 7837 c0 -25 4 -49 10 -52 6 -4 7 11 3 42 -8 63 -13 67 -13 10z"/>
<path d="M1448 7755 c8 -56 21 -63 21 -10 0 35 -3 44 -8 30 -7 -16 -9 -17 -13
-5 -3 8 -3 2 0 -15z"/>
<path d="M1572 7730 c0 -19 2 -27 5 -17 2 9 2 25 0 35 -3 9 -5 1 -5 -18z"/>
<path d="M1522 7625 c0 -11 3 -31 7 -45 l7 -25 7 25 c3 13 3 27 -2 30 -4 3
-11 12 -14 20 -4 11 -5 9 -5 -5z"/>
<path d="M101 4397 c-13 -21 -12 -21 5 -5 10 10 16 20 13 22 -3 3 -11 -5 -18
-17z"/>
</g>
</svg>
