<?xml version="1.0" standalone="no"?>
<!DOCTYPE svg PUBLIC "-//W3C//DTD SVG 20010904//EN"
 "http://www.w3.org/TR/2001/REC-SVG-20010904/DTD/svg10.dtd">
<svg version="1.0" xmlns="http://www.w3.org/2000/svg"
 width="1170.000000pt" height="1600.000000pt" viewBox="0 0 1170.000000 1600.000000"
 preserveAspectRatio="xMidYMid meet">

<g transform="translate(0.000000,1600.000000) scale(0.100000,-0.100000)"
fill="#000000" stroke="none">
<path d="M5496 15968 c-3 -13 -10 -138 -16 -278 -6 -140 -15 -279 -20 -309
-12 -65 -29 -95 -177 -309 -175 -250 -207 -295 -219 -299 -13 -4 -25 196 -18
292 2 33 11 155 20 272 9 117 13 220 10 229 -6 15 -8 15 -28 -2 -41 -37 -266
-321 -367 -464 -57 -80 -108 -147 -114 -149 -7 -3 -8 56 -3 199 5 160 4 201
-6 198 -21 -7 -120 -139 -249 -331 -163 -244 -305 -539 -385 -802 -35 -114
-39 -271 -10 -408 10 -48 15 -91 12 -95 -9 -8 -270 256 -409 416 -60 67 -112
120 -118 117 -41 -26 44 -465 157 -810 74 -226 126 -323 270 -512 35 -46 64
-87 64 -90 0 -3 -12 2 -27 12 -22 12 -20 9 7 -14 28 -25 31 -31 16 -31 -11 0
-144 37 -298 82 -153 45 -281 78 -285 75 -11 -12 13 -50 102 -157 124 -148
483 -503 654 -645 100 -83 139 -121 127 -123 -10 -2 -77 1 -148 7 -157 13
-188 14 -188 3 0 -13 56 -38 445 -202 229 -96 381 -165 417 -191 32 -22 88
-53 125 -68 37 -15 68 -32 70 -38 2 -6 -38 -57 -90 -114 -227 -252 -226 -251
-207 -443 20 -212 49 -290 148 -397 64 -70 70 -111 22 -165 -34 -40 -45 -77
-59 -200 -13 -119 -31 -164 -66 -164 -19 0 -45 -18 -89 -60 -38 -36 -71 -60
-85 -60 -69 0 -112 -66 -93 -143 6 -23 13 -57 17 -76 3 -19 13 -43 22 -53 14
-16 15 -20 2 -32 -8 -7 -266 -181 -573 -386 l-559 -373 -116 -23 c-245 -47
-490 -119 -736 -215 -179 -70 -473 -213 -603 -293 -191 -118 -407 -304 -612
-527 -107 -117 -405 -474 -512 -614 -174 -228 -447 -729 -586 -1075 -99 -247
-156 -458 -112 -414 6 6 37 82 70 169 98 260 240 530 435 825 217 329 571 733
840 961 313 264 744 535 1007 633 164 61 159 53 -55 -94 -89 -62 -168 -119
-174 -128 -7 -9 -13 -36 -13 -61 0 -88 80 -171 164 -171 29 0 62 18 173 94 76
52 295 201 487 332 l349 237 161 8 c667 36 1377 -150 1934 -508 108 -69 262
-182 262 -192 0 -5 -60 -41 -132 -81 -190 -105 -278 -160 -393 -250 -92 -70
-108 -79 -159 -85 -32 -4 -81 -19 -109 -34 -43 -21 -57 -36 -79 -80 -16 -30
-28 -68 -28 -85 0 -39 -4 -43 -68 -90 -61 -44 -133 -129 -167 -196 -50 -100
-69 -201 -69 -385 -1 -154 1 -176 22 -230 31 -83 84 -150 167 -211 60 -45 70
-58 80 -98 15 -56 31 -75 120 -138 69 -48 70 -50 125 -171 68 -148 125 -243
163 -271 15 -11 58 -25 95 -32 76 -13 78 -10 -53 -60 -161 -61 -237 -105 -316
-184 -119 -117 -201 -276 -202 -387 0 -28 9 -84 19 -123 l18 -72 -24 -20
c-114 -89 -150 -123 -206 -193 -74 -90 -143 -226 -170 -330 -14 -54 -18 -109
-18 -240 -1 -202 7 -236 95 -403 l59 -114 -29 -66 c-68 -155 -100 -352 -81
-503 35 -293 149 -506 368 -690 48 -41 90 -78 93 -83 4 -5 -1 -33 -12 -62 -39
-116 -49 -283 -25 -444 38 -251 151 -472 340 -668 190 -196 416 -322 686 -379
97 -21 143 -25 300 -26 184 -1 260 7 366 40 l51 16 74 -62 c125 -105 356 -224
533 -275 152 -44 293 -59 507 -53 223 5 283 18 434 92 201 100 435 318 544
509 18 30 36 58 40 60 4 3 54 -10 112 -29 138 -45 239 -57 449 -58 140 0 195
5 275 21 314 66 630 225 796 399 197 206 297 437 299 683 0 47 4 90 8 97 4 6
54 17 111 23 291 32 510 133 713 328 165 159 267 346 309 570 17 89 6 332 -21
455 -46 215 -152 475 -239 585 -23 28 -41 56 -41 62 0 6 14 31 31 56 87 126
122 271 122 494 -1 161 -20 247 -87 387 -104 215 -249 372 -438 472 -89 47
-156 70 -256 85 l-77 12 -65 124 c-56 108 -77 137 -150 210 -47 47 -112 100
-146 119 -53 30 -65 43 -98 105 -57 108 -97 157 -203 250 l-98 85 0 88 c0 74
-4 97 -27 145 -33 71 -191 310 -292 443 -42 55 -78 109 -81 120 -41 210 -44
216 -112 287 l-65 67 31 38 c68 85 77 177 30 316 -29 89 -30 98 -33 302 -2
149 -8 231 -19 282 -30 132 -129 301 -285 488 -51 60 -92 113 -92 116 0 3 30
11 66 18 79 14 151 46 299 131 270 155 369 223 415 286 42 59 109 205 155 334
65 185 115 272 359 619 65 94 61 105 -42 96 -205 -18 -301 -55 -399 -155 -97
-98 -143 -201 -214 -483 -75 -303 -133 -412 -249 -472 -33 -17 -43 -18 -355
-35 -104 -6 -212 -13 -238 -16 l-48 -5 -77 78 c-42 43 -102 96 -132 119 -46
33 -58 49 -70 90 -8 27 -15 63 -16 79 0 17 -4 42 -8 56 -6 22 0 34 35 75 80
93 85 133 33 267 -35 89 -35 94 -25 159 15 94 14 154 -5 191 -9 18 -63 105
-120 194 l-104 162 0 88 c0 48 -7 119 -15 158 -20 93 -20 181 -1 234 19 51 20
105 5 221 -20 163 -37 216 -90 285 -27 35 -49 68 -49 72 0 4 119 88 263 185
1045 704 1587 1076 1594 1095 9 23 -6 59 -50 119 -52 71 -87 92 -125 78 -15
-6 -113 -67 -217 -136 -105 -69 -209 -135 -232 -146 -23 -12 -43 -25 -45 -29
-5 -13 -84 -67 -783 -538 -357 -241 -659 -440 -670 -443 -12 -2 -70 21 -133
53 -149 76 -199 84 -365 61 -92 -13 -131 -14 -146 -7 -11 6 -34 11 -51 11 -22
0 -46 12 -78 39 -89 74 -124 86 -242 84 -108 -2 -290 -17 -348 -29 l-33 -7 49
84 c27 46 150 255 274 464 228 385 248 419 248 429 0 15 -27 1 -122 -64 -57
-38 -104 -66 -106 -61 -2 6 11 41 27 80 49 109 100 271 111 348 18 128 -8 472
-80 1070 -20 163 -26 193 -39 193 -10 0 -15 -12 -121 -266 -102 -245 -202
-447 -208 -421 -2 9 -7 17 -11 17 -5 0 -14 42 -20 93 -65 498 -106 729 -153
850 -51 133 -223 380 -567 812 -203 256 -206 259 -215 213z m454 -800 c62 -92
90 -157 121 -278 20 -80 49 -233 44 -238 -1 -1 -43 43 -93 100 -86 97 -91 106
-97 158 -10 83 -43 222 -81 334 -19 55 -34 102 -34 104 0 10 87 -101 140 -180z
m-1030 -202 l0 -164 -87 -56 c-47 -31 -88 -54 -90 -52 -4 4 169 435 175 436 1
0 2 -74 2 -164z m-430 -318 c17 -86 71 -251 114 -343 l35 -77 -19 -26 c-10
-15 -59 -91 -108 -169 l-89 -142 -7 62 c-15 153 -18 317 -7 407 19 158 54 359
61 355 4 -3 13 -33 20 -67z m1310 -748 c16 -85 51 -370 46 -377 -1 -1 -40 27
-87 63 l-86 64 24 127 c12 71 31 172 40 226 l18 99 12 -49 c7 -26 22 -95 33
-153z m907 -290 c-5 -156 -19 -218 -80 -354 l-31 -70 -37 78 -37 79 44 91 c42
90 133 323 135 348 1 7 4 4 6 -7 3 -11 3 -85 0 -165z m-2871 -60 l6 -75 -20
24 c-19 24 -152 263 -152 274 0 3 36 -29 80 -71 l81 -77 5 -75z m1624 -235
c59 -8 116 -34 168 -78 24 -21 41 -37 38 -37 -4 0 -59 13 -124 29 -64 16 -128
32 -142 35 -14 3 -33 19 -42 36 l-17 30 37 -5 c20 -2 57 -7 82 -10z m348 -9
c91 -46 266 -261 292 -358 9 -32 8 -46 -7 -76 -10 -20 -31 -43 -47 -51 l-29
-13 44 -28 c64 -40 87 -71 26 -36 -70 41 -66 27 6 -22 118 -79 104 -38 128
-372 11 -162 19 -338 17 -391 l-3 -96 -89 -134 c-126 -190 -249 -359 -286
-394 -26 -25 -39 -30 -78 -29 -69 3 -464 81 -529 106 -72 26 -118 70 -261 243
-64 77 -169 202 -234 277 -86 100 -118 144 -118 163 0 22 34 -14 192 -197 105
-123 201 -234 213 -248 83 -93 123 -134 150 -153 l30 -20 -31 34 c-54 59 -125
162 -117 170 4 4 35 19 68 33 180 76 191 99 21 42 l-99 -34 -26 30 c-47 55
-329 433 -326 437 2 1 27 -5 54 -14 28 -9 56 -15 63 -13 6 2 -30 48 -80 102
-50 54 -89 103 -86 108 8 12 -44 78 -61 78 -17 0 -97 110 -125 171 -22 50 -25
87 -9 144 17 59 65 99 143 119 96 24 97 23 136 -46 49 -87 163 -201 217 -216
61 -18 217 -39 391 -53 l152 -13 0 -33 c0 -41 18 -43 26 -3 6 29 6 29 88 32
l81 3 -73 43 -73 43 23 40 c12 22 44 61 71 86 48 45 49 45 108 41 l59 -4 2 40
1 41 4 -37 c5 -48 23 -50 23 -4 l0 35 76 -35 c41 -19 78 -34 81 -34 26 0 -138
209 -279 354 -64 67 -114 124 -110 128 20 19 71 38 105 38 21 0 59 -11 85 -24z
m4012 -121 c7 -9 11 -17 9 -19 -7 -5 -1924 -1292 -1934 -1298 -6 -4 -21 2 -34
11 l-24 18 409 275 c1118 751 1534 1028 1547 1028 8 0 20 -7 27 -15z m-4315
-180 c38 -8 92 -22 118 -31 l49 -16 -41 -38 c-44 -40 -82 -114 -102 -195 -7
-27 -13 -52 -15 -53 -3 -5 -162 89 -239 141 -33 23 -82 61 -108 86 l-48 45
123 37 c141 42 166 44 263 24z m-345 -223 c0 -8 -49 12 -98 41 l-54 32 34 6
c29 5 39 0 76 -35 23 -22 42 -42 42 -44z m1192 26 c31 -25 95 -137 113 -200
14 -47 19 -98 19 -203 1 -133 0 -142 -26 -190 -14 -27 -43 -70 -64 -94 -37
-43 -109 -101 -126 -101 -4 0 -8 18 -8 40 0 28 7 45 24 62 57 54 117 135 125
168 16 61 22 120 13 120 -5 0 -12 -25 -15 -55 -7 -68 -38 -123 -106 -190 -50
-48 -51 -49 -51 -22 0 19 4 25 15 21 22 -9 45 14 45 44 0 14 12 43 26 63 l26
37 -17 84 c-23 110 -30 128 -55 128 -15 0 -20 7 -20 29 0 44 10 61 35 61 13 0
31 7 40 16 19 20 12 32 -9 15 -8 -7 -23 -11 -34 -9 -18 3 -18 6 -4 56 8 28 20
52 26 52 7 0 25 -27 41 -61 16 -33 31 -56 33 -51 6 18 -53 127 -70 130 -22 4
-41 -35 -62 -125 -28 -124 -20 -166 36 -186 25 -9 27 -50 3 -62 -13 -7 -21
-23 -23 -48 -2 -24 -10 -41 -23 -47 -18 -10 -19 -7 -19 37 0 26 -5 107 -12
180 l-11 132 28 68 c48 114 67 132 107 101z m-45 -480 c-3 -7 -5 -2 -5 12 0
14 2 19 5 13 2 -7 2 -19 0 -25z m-1752 -242 c62 -30 102 -63 144 -118 7 -9
-32 10 -86 42 -54 33 -105 60 -114 60 -20 0 -32 -26 -24 -51 9 -29 26 -23 19
6 -8 31 -1 31 61 -3 56 -30 66 -57 23 -57 -33 1 -37 -11 -7 -20 15 -5 28 -1
41 13 20 20 21 20 53 0 48 -28 58 -43 40 -58 -22 -18 -19 -38 12 -79 55 -75
106 -121 134 -121 16 0 31 -5 35 -12 5 -8 -5 -10 -37 -6 l-44 6 34 -15 c19 -8
56 -17 82 -20 27 -3 46 -9 44 -13 -3 -4 -24 -4 -46 1 -23 6 -47 8 -53 6 -20
-8 44 -27 89 -27 35 0 46 -5 59 -25 l16 -25 -50 0 c-79 0 -214 57 -284 119
-36 32 -231 293 -257 343 -10 21 -19 49 -19 63 0 22 4 25 33 25 18 0 64 -15
102 -34z m1939 -120 c71 -73 78 -73 19 2 l-34 42 48 0 c67 0 186 -35 221 -65
1 -1 -12 -17 -29 -36 -54 -58 -251 -364 -348 -542 -23 -42 -51 -82 -61 -87
-17 -9 -19 -5 -25 32 -4 24 -5 94 -3 156 2 61 0 112 -4 112 -11 0 -21 -151
-15 -240 l7 -86 -66 -53 -66 -52 6 168 c4 92 3 211 -2 263 l-8 95 60 94 c56
88 61 99 64 163 4 66 5 69 37 84 18 8 41 24 50 34 16 18 20 18 49 4 17 -9 62
-48 100 -88z m-1748 -78 c4 -6 3 -8 -4 -4 -6 3 -15 -2 -21 -11 -6 -10 -11 -13
-11 -7 0 9 19 34 26 34 2 0 6 -5 10 -12z m71 -120 c-3 -8 -6 -5 -6 6 -1 11 2
17 5 13 3 -3 4 -12 1 -19z m40 -44 c-3 -3 -12 -4 -19 -1 -8 3 -5 6 6 6 11 1
17 -2 13 -5z m1270 -329 l-6 -265 -66 -73 c-37 -39 -90 -107 -118 -149 -28
-43 -55 -78 -61 -78 -6 0 -11 12 -12 28 -1 15 -18 63 -38 107 -34 73 -50 93
-184 224 -93 91 -138 141 -122 136 14 -4 27 -11 30 -16 12 -19 96 -79 111 -79
18 0 62 43 53 53 -3 3 16 4 43 3 93 -6 118 16 285 257 45 64 84 117 86 117 3
0 2 -119 -1 -265z m1479 137 c60 -21 213 -120 247 -162 29 -34 84 -170 100
-245 6 -30 7 -74 2 -110 l-8 -60 -14 34 c-22 51 -26 30 -7 -35 20 -69 16 -204
-8 -248 l-15 -29 -17 54 c-10 30 -32 75 -51 100 -40 55 -179 175 -259 223 -60
36 -214 96 -244 96 -9 -1 17 -14 58 -29 162 -61 271 -132 388 -256 62 -64 74
-84 94 -147 21 -65 23 -93 23 -258 0 -198 -11 -256 -57 -315 l-21 -27 -49 124
c-45 115 -49 132 -59 258 -6 74 -13 137 -16 140 -3 3 -3 -56 0 -130 6 -132 7
-138 56 -268 55 -141 60 -176 35 -224 l-16 -30 -54 112 c-30 62 -57 111 -59
108 -3 -3 15 -49 41 -104 85 -183 105 -322 80 -542 -18 -149 -37 -243 -63
-299 l-17 -38 -7 86 c-13 150 -55 252 -156 373 -182 219 -460 342 -732 323
-144 -10 -257 -48 -365 -122 l-39 -26 6 87 c5 80 9 96 52 179 l47 90 -46 -44
c-71 -69 -156 -262 -156 -355 0 -49 -48 -128 -62 -102 -26 47 62 327 136 430
51 71 146 153 239 205 58 33 72 47 38 38 -12 -3 -18 0 -15 7 2 6 -7 34 -20 62
-13 28 -28 67 -31 87 -4 21 -11 40 -16 43 -12 7 -11 -149 0 -199 8 -35 7 -38
-21 -53 -16 -9 -33 -13 -36 -9 -4 4 -7 82 -7 173 0 135 3 177 18 222 58 172
171 336 272 395 22 12 64 30 93 40 28 9 52 21 52 26 0 11 -3 11 -34 -1 -14 -5
-26 -8 -26 -5 0 2 14 42 31 89 27 76 36 89 82 124 29 22 75 52 102 68 l50 29
-37 -43 c-36 -43 -107 -197 -87 -190 6 2 23 34 39 71 54 129 119 183 252 212
91 20 232 18 294 -3z m-1929 -404 l42 -43 -54 -47 c-29 -27 -59 -48 -66 -48
-24 0 -97 65 -107 95 -10 29 -10 28 -11 -15 0 -25 10 -76 23 -115 14 -38 24
-71 23 -71 -4 -3 -133 -36 -147 -37 -18 -2 -48 120 -49 201 -1 59 7 78 82 199
l51 82 85 -79 c47 -43 105 -98 128 -122z m616 65 c-14 -38 -30 -84 -35 -103
-12 -40 -262 -357 -305 -385 -24 -16 -123 -38 -123 -28 0 11 69 138 107 197
93 145 208 269 317 345 33 23 61 41 62 41 2 0 -8 -30 -23 -67z m-526 -290 c-3
-10 -5 -4 -5 12 0 17 2 24 5 18 2 -7 2 -21 0 -30z m30 -30 c-3 -10 -5 -4 -5
12 0 17 2 24 5 18 2 -7 2 -21 0 -30z m-140 11 c-3 -3 -12 -4 -19 -1 -8 3 -5 6
6 6 11 1 17 -2 13 -5z m99 -40 c42 -8 87 -19 101 -25 l24 -9 -38 -71 -38 -72
-175 7 c-211 8 -230 17 -254 118 -6 24 -2 28 42 42 26 8 56 17 67 19 47 11
202 6 271 -9z m2451 -106 c-3 -7 -5 -2 -5 12 0 14 2 19 5 13 2 -7 2 -19 0 -25z
m-3229 -327 l137 -109 37 -123 c33 -113 35 -124 20 -136 -10 -7 -22 -13 -27
-13 -20 0 -156 133 -196 192 -56 82 -108 194 -115 251 -4 26 -4 47 0 47 4 0
69 -49 144 -109z m-136 -28 c41 -115 133 -240 237 -325 28 -23 40 -38 32 -42
-7 -4 -10 -2 -9 5 2 6 -3 14 -11 17 -8 3 -11 0 -7 -7 5 -7 1 -9 -8 -5 -9 3
-16 1 -16 -5 0 -6 4 -11 10 -11 20 0 70 -83 70 -115 0 -27 -10 -42 -57 -85
-80 -73 -98 -84 -121 -71 -39 21 -138 139 -169 201 -17 36 -37 93 -44 128 -13
68 -7 221 11 281 9 31 45 81 59 81 4 0 14 -21 23 -47z m-167 -390 c-24 -80
-19 -122 25 -209 39 -78 80 -130 125 -160 l23 -15 -39 -84 c-45 -95 -47 -105
-19 -80 11 10 64 40 117 66 70 34 102 45 117 39 18 -6 13 -11 -39 -38 -33 -16
-91 -55 -128 -86 -61 -50 -74 -56 -115 -56 -73 0 -92 25 -92 122 0 76 -1 79
-37 119 -47 52 -86 72 -124 64 -38 -9 -57 7 -64 54 -3 20 -11 53 -17 73 -13
43 2 92 33 108 10 6 53 11 96 12 43 1 61 3 41 5 -21 2 -38 8 -38 12 0 4 20 28
45 54 34 35 52 47 74 47 l30 0 -14 -47z m1975 -161 c52 -32 79 -64 69 -81 -18
-32 -58 -151 -51 -151 5 0 21 36 37 80 16 44 32 79 35 77 39 -23 87 -37 108
-32 13 3 52 24 85 47 73 49 126 59 193 33 39 -15 49 -25 70 -69 31 -67 30
-103 -6 -183 -16 -36 -30 -71 -30 -77 1 -14 38 54 66 123 21 52 22 53 34 30
31 -59 49 -69 126 -69 63 0 76 -3 103 -25 64 -55 75 -143 31 -271 -11 -31 -18
-59 -15 -62 5 -5 16 21 42 101 9 28 19 45 21 37 31 -98 44 -118 97 -154 30
-20 62 -50 72 -68 18 -36 24 -138 11 -218 l-8 -45 14 40 13 40 7 -43 c15 -82
-20 -218 -86 -344 -31 -58 -78 -102 -86 -80 -2 7 -10 12 -17 12 -7 0 -40 20
-74 45 -35 26 -67 43 -74 39 -7 -4 0 6 14 22 40 43 45 57 73 204 15 74 28 143
30 153 2 9 1 17 -2 17 -4 0 -22 -69 -40 -153 -18 -83 -41 -163 -50 -177 -10
-14 -56 -45 -102 -68 -96 -50 -131 -51 -218 -10 -45 22 -47 25 -52 71 -6 43
-3 49 27 79 25 24 40 54 58 113 29 95 65 300 64 358 -1 26 -10 -12 -24 -95
-26 -159 -69 -314 -93 -342 -25 -28 -157 -113 -197 -126 -45 -15 -92 9 -161
82 -77 82 -79 86 -38 138 19 24 37 53 39 64 3 12 6 116 9 231 2 116 6 224 10
240 6 29 6 29 -11 -5 -14 -29 -18 -74 -23 -256 l-5 -220 -42 -50 c-55 -66
-125 -130 -150 -138 -27 -9 -143 51 -205 105 -55 46 -58 63 -28 139 16 40 18
62 13 103 -18 122 -4 333 33 517 l5 25 -15 -27 c-9 -14 -22 -50 -30 -80 -8
-29 -27 -89 -41 -133 -27 -81 -28 -108 -8 -239 7 -49 -11 -41 -38 18 -22 49
-24 99 -6 152 8 22 17 64 21 94 3 30 16 96 29 145 20 79 31 102 94 191 40 55
80 107 90 116 42 38 130 42 183 10z m-2104 -186 c12 -10 16 -18 9 -24 -22 -20
-2301 -1545 -2315 -1549 -8 -2 -23 2 -33 9 -16 12 32 48 480 353 650 444 1815
1224 1829 1224 5 1 19 -5 30 -13z m824 -66 c31 -45 101 -103 217 -181 30 -20
57 -58 121 -175 46 -82 98 -163 115 -179 20 -19 65 -41 117 -59 47 -16 91 -33
98 -39 8 -7 12 -50 12 -151 0 -184 13 -231 82 -298 l50 -49 -36 -85 c-21 -46
-44 -114 -53 -149 -9 -36 -19 -65 -22 -65 -3 0 -29 16 -56 36 -653 471 -1198
673 -1948 723 -115 8 -149 14 -136 24 2 2 160 109 351 237 l347 233 30 -26
c63 -53 122 -42 215 37 28 24 70 53 93 65 24 12 63 34 88 50 25 16 60 32 78
35 18 3 66 19 107 36 41 16 80 29 85 29 6 0 26 -22 45 -49z m152 17 c30 -15
82 -55 117 -91 65 -65 133 -162 109 -154 -7 3 -21 21 -31 41 -16 34 -21 37
-59 37 -31 0 -39 3 -31 11 9 9 -1 21 -36 49 -26 20 -58 50 -72 67 -22 26 -31
29 -78 29 -45 -1 -56 3 -69 23 l-16 24 56 -5 c31 -2 79 -16 110 -31z m775
-319 c-3 -8 -6 -5 -6 6 -1 11 2 17 5 13 3 -3 4 -12 1 -19z m0 -90 c-3 -7 -5
-2 -5 12 0 14 2 19 5 13 2 -7 2 -19 0 -25z m-391 -27 c-14 -22 -33 -12 -28 15
4 23 6 24 20 11 8 -8 11 -20 8 -26z m290 -54 c-65 -107 -66 -112 -66 -255 l0
-135 23 44 c13 24 39 54 57 67 l33 22 12 -33 c29 -85 74 -119 185 -143 62 -13
74 -12 116 2 43 15 48 15 56 0 11 -19 64 -47 136 -70 52 -18 82 -50 82 -92 0
-25 -41 -92 -67 -110 l-24 -15 21 40 c20 41 26 96 12 118 -10 16 -90 51 -126
55 -29 3 -29 2 -41 -68 -17 -95 -29 -117 -63 -110 -15 3 -97 15 -182 26 -182
24 -218 41 -260 125 -23 46 -25 64 -28 215 -5 189 -2 202 75 306 33 45 50 61
57 54 8 -8 5 -21 -8 -43z m111 -9 c-3 -8 -6 -5 -6 6 -1 11 2 17 5 13 3 -3 4
-12 1 -19z m-70 -124 c-3 -3 -12 -4 -19 -1 -8 3 -5 6 6 6 11 1 17 -2 13 -5z
m-1997 -100 c638 -63 1138 -259 1724 -676 179 -127 179 -132 24 -213 -62 -32
-153 -80 -202 -107 -49 -26 -90 -48 -92 -48 -1 0 -42 30 -91 67 -371 280 -783
464 -1293 577 -261 58 -592 86 -832 70 -75 -5 -134 -6 -130 -2 4 4 124 86 267
183 l260 176 105 -6 c58 -3 175 -13 260 -21z m-990 -29 c0 -5 -123 -90 -417
-288 -206 -138 -242 -158 -320 -182 -228 -69 -433 -171 -692 -342 -395 -261
-645 -478 -912 -788 -311 -362 -518 -672 -733 -1100 -63 -125 -57 -90 10 63
163 368 368 739 531 960 31 42 129 165 216 272 482 587 741 813 1182 1030 346
170 660 279 1017 355 62 13 114 24 116 24 1 1 2 -1 2 -4z m3483 -291 c23 -12
27 -21 27 -55 0 -48 -22 -95 -49 -104 -15 -5 -107 11 -119 20 -2 2 6 30 18 64
11 33 20 71 20 85 0 23 2 24 38 14 20 -6 49 -17 65 -24z m690 -43 c29 -21 59
-31 96 -35 30 -3 59 -10 64 -15 13 -13 -81 -31 -163 -31 -64 0 -72 3 -106 32
l-36 32 44 22 c23 13 47 23 51 24 5 0 27 -13 50 -29z m635 -58 c-10 -2 -28 -2
-40 0 -13 2 -5 4 17 4 22 1 32 -1 23 -4z m-624 -1831 c28 -26 69 -62 91 -80
l39 -32 -22 -37 c-20 -36 -24 -38 -68 -36 -82 3 -90 8 -136 90 -24 43 -44 81
-46 85 -3 7 67 56 82 57 5 1 32 -20 60 -47z m-119 -95 c22 -39 41 -75 43 -78
2 -4 -73 -6 -165 -4 l-168 3 160 -8 c88 -5 198 -15 245 -22 l85 -13 -3 -64
c-1 -35 3 -81 8 -102 12 -45 79 -138 166 -230 55 -59 64 -73 64 -106 0 -21 9
-104 19 -184 21 -163 39 -209 96 -257 33 -27 362 -197 426 -221 22 -8 35 -30
73 -127 109 -271 385 -840 467 -961 16 -24 29 -55 29 -68 0 -34 20 -74 41 -80
14 -5 16 -14 12 -65 -5 -47 -2 -65 14 -92 11 -18 35 -94 53 -168 18 -74 41
-159 52 -189 24 -73 24 -74 -19 -45 -98 66 -224 109 -348 118 l-70 5 85 -13
c47 -7 105 -19 130 -26 54 -14 166 -70 224 -109 54 -39 190 -177 180 -183 -5
-3 -33 -11 -62 -18 -29 -7 -51 -14 -48 -17 2 -3 40 5 83 17 153 42 371 42 499
0 104 -34 230 -101 369 -195 138 -92 162 -99 34 -10 l-80 57 57 106 c126 236
218 335 388 417 117 56 205 76 361 84 l140 8 -116 1 c-95 2 -135 -3 -214 -23
-144 -36 -268 -99 -351 -177 l-31 -29 -5 69 c-5 62 -16 92 -123 318 -103 218
-119 258 -126 322 -5 44 -16 87 -29 106 -11 18 -20 41 -20 50 0 9 -7 30 -15
46 -11 21 -12 36 -5 55 6 17 6 60 -1 128 -30 303 -77 520 -199 927 -39 131
-57 206 -50 208 32 11 69 58 95 121 18 46 34 71 44 71 10 0 12 3 5 8 -8 5 -3
29 17 82 16 41 39 105 51 143 12 37 25 67 28 67 11 0 187 -158 218 -196 35
-42 102 -164 102 -185 0 -8 30 -30 67 -49 133 -71 255 -210 334 -385 17 -39
36 -73 41 -76 6 -4 39 -9 75 -13 171 -18 335 -105 488 -261 140 -141 223 -286
270 -470 38 -148 15 -450 -44 -575 -31 -66 -92 -160 -104 -160 -5 0 -29 18
-55 39 -86 72 -255 165 -427 236 -48 20 -89 35 -91 33 -2 -3 33 -19 79 -37
107 -44 275 -129 357 -183 95 -62 207 -179 256 -268 173 -319 247 -723 179
-993 -96 -387 -418 -694 -832 -792 -78 -18 -275 -37 -299 -29 -18 6 -18 6 -2
-7 16 -13 17 -26 8 -144 -5 -71 -18 -165 -30 -209 -38 -149 -160 -345 -292
-472 -162 -156 -470 -305 -752 -366 -82 -17 -134 -21 -276 -21 -205 0 -294 11
-447 59 -86 26 -113 39 -113 52 -1 9 -14 -9 -30 -40 -128 -253 -416 -512 -666
-598 -115 -41 -194 -52 -354 -53 -193 -1 -374 25 -525 75 -153 50 -391 182
-485 268 -51 47 -54 51 -36 63 10 6 45 30 78 51 66 44 252 215 243 224 -3 3
-40 -28 -83 -70 -198 -194 -302 -245 -551 -269 -208 -20 -429 8 -621 77 -408
146 -728 506 -817 918 -24 115 -24 357 1 446 24 84 119 280 190 393 31 49 56
91 56 94 0 19 -118 -167 -161 -255 l-51 -102 -26 19 c-15 10 -62 50 -104 88
-293 259 -410 649 -304 1013 33 115 59 173 112 252 86 127 176 211 384 361 24
17 24 17 -8 0 -108 -58 -310 -240 -369 -330 -18 -29 -37 -53 -41 -53 -9 0 -83
129 -111 193 -76 177 -66 479 23 671 99 214 322 420 551 508 30 11 54 23 51
25 -6 7 -117 -42 -181 -80 -42 -24 -62 -32 -67 -24 -18 28 -40 126 -41 177 -1
135 139 356 286 451 147 95 407 179 556 179 l86 0 164 -164 164 -164 -66 -93
c-36 -52 -82 -129 -103 -171 -28 -57 -44 -78 -59 -79 -18 -2 -18 -2 3 -6 32
-6 27 -15 -29 -48 -74 -44 -185 -159 -235 -245 -24 -41 -44 -79 -44 -85 0 -5
19 24 42 65 47 85 175 220 249 263 68 40 175 75 281 92 189 30 269 17 453 -75
66 -33 111 -53 100 -44 -11 9 -42 27 -68 40 -55 28 -55 30 -4 128 48 91 107
150 197 195 89 44 189 65 286 59 35 -2 58 0 51 4 -6 5 -47 8 -91 7 l-78 -2
-29 68 c-15 37 -47 96 -70 131 -23 36 -44 81 -46 101 -5 49 -17 68 -57 93 -28
17 -38 32 -51 78 -20 67 -48 124 -123 250 l-55 92 40 58 c99 140 95 133 89
186 -3 27 -15 66 -26 88 -11 21 -20 43 -20 48 0 14 218 117 295 140 39 11 55
18 38 15 -28 -4 -35 -1 -48 25 -15 29 -15 30 7 30 13 1 81 5 151 10 l129 8
101 60 c56 33 109 60 117 61 9 0 32 -29 55 -72z m-579 -98 c9 -16 -14 -33 -71
-54 -27 -9 -86 -37 -130 -61 -76 -40 -114 -46 -104 -15 5 13 256 139 281 140
9 1 20 -4 24 -10z m2824 -763 c0 -4 -113 -80 -173 -115 -21 -13 -44 -20 -52
-17 -8 3 -14 1 -12 -4 1 -6 -26 -26 -60 -45 l-61 -35 44 77 c24 43 44 80 44
83 0 9 75 50 91 50 7 0 -7 -10 -31 -22 -34 -18 -52 -36 -73 -75 -16 -29 -26
-53 -23 -53 3 0 17 22 31 50 15 29 37 56 55 65 38 20 42 19 36 -7 -3 -13 2 -6
11 15 l16 37 78 0 c44 0 79 -2 79 -4z m-3759 -393 c63 -71 132 -147 153 -171
39 -42 39 -43 10 -32 -27 10 -324 296 -324 312 0 5 14 11 41 17 3 0 57 -56
120 -126z m3008 59 l65 -19 -150 -41 c-254 -71 -374 -93 -374 -69 0 9 20 18
58 26 95 19 219 61 264 91 52 34 56 35 137 12z m295 -49 c10 -32 24 -72 32
-88 15 -32 334 -985 334 -997 0 -9 -101 -40 -108 -33 -7 7 -263 720 -334 930
-33 99 -64 187 -69 195 -6 12 4 18 49 31 31 9 62 17 68 18 6 0 18 -25 28 -56z
m-3130 -272 c16 -17 13 -23 -45 -117 -80 -128 -81 -129 -108 -112 -11 7 -21
18 -21 24 0 15 139 224 149 224 4 0 15 -8 25 -19z m-186 -286 c-2 -5 -9 -9
-15 -9 -7 1 -13 -3 -13 -9 0 -6 -2 -8 -5 -5 -3 3 -3 13 1 22 7 18 37 19 32 1z
m622 8 c-1 -20 -18 -33 -35 -27 -17 7 -17 8 1 21 20 14 34 17 34 6z m3145
-713 c9 -29 1 -36 -58 -56 -28 -9 -57 -19 -63 -21 -10 -4 -49 56 -42 62 6 4
124 33 140 34 9 1 19 -8 23 -19z m52 -196 c-4 -5 -114 -34 -126 -34 -12 0 -65
119 -57 127 4 5 35 17 69 29 l62 21 28 -70 c15 -38 26 -71 24 -73z m-52 -44
c-38 -10 -72 -16 -74 -14 -8 7 83 32 119 33 14 0 -6 -8 -45 -19z m129 -120
c53 -125 196 -503 192 -508 -2 -1 -36 13 -77 31 -41 19 -85 39 -99 44 -20 8
-30 26 -49 84 -13 41 -55 155 -92 253 -38 98 -67 181 -65 183 9 9 101 32 121
30 15 -2 31 -29 69 -117z m531 -146 l0 -80 -51 -75 c-29 -41 -75 -119 -105
-174 -29 -55 -54 -102 -56 -104 -3 -4 -73 31 -73 36 0 2 28 31 63 66 86 85
173 255 190 370 14 100 32 78 32 -39z"/>
<path d="M4702 12544 c-24 -14 -42 -29 -40 -32 10 -22 74 -112 80 -112 3 0 16
15 27 34 51 82 137 74 344 -32 4 -2 7 1 7 6 0 12 -173 126 -222 147 -60 24
-145 20 -196 -11z"/>
<path d="M5705 12537 c-39 -39 -55 -90 -54 -167 l1 -55 12 75 c15 93 37 136
80 157 48 23 82 10 142 -51 56 -58 85 -120 109 -238 24 -114 24 -115 -51 -149
-37 -16 -65 -32 -62 -34 3 -3 37 9 76 26 81 36 79 31 58 141 -39 203 -129 328
-236 328 -34 0 -48 -6 -75 -33z"/>
<path d="M4640 12494 c0 -4 16 -29 35 -55 46 -65 45 -75 -2 -13 -20 27 -38 51
-40 53 -2 2 -6 2 -9 -2 -7 -7 63 -107 74 -107 4 0 13 4 21 9 12 8 7 20 -24 65
-34 50 -55 69 -55 50z"/>
<path d="M4918 12261 c-29 -25 -32 -35 -36 -94 -5 -80 13 -123 116 -279 79
-120 65 -114 162 -69 57 26 37 27 -29 2 -46 -19 -50 -19 -64 -3 -40 45 -150
233 -163 279 -30 102 7 173 91 173 57 0 98 -17 153 -64 59 -49 68 -45 12 6
-91 82 -184 101 -242 49z"/>
<path d="M5632 12233 c-40 -16 -32 -118 11 -148 30 -21 74 -19 87 4 39 74 -28
172 -98 144z"/>
<path d="M5236 12074 c-25 -25 -29 -59 -11 -97 43 -92 152 -62 125 34 -19 67
-78 99 -114 63z"/>
<path d="M6077 12054 c-3 -3 -23 -6 -44 -6 -38 0 -160 -49 -205 -83 -19 -15
-20 -16 -3 -10 11 4 31 9 45 11 14 1 61 19 105 38 44 20 88 36 97 36 9 0 20 5
23 10 7 11 -8 14 -18 4z"/>
<path d="M5492 11887 c-16 -69 -15 -102 2 -116 20 -17 78 -24 96 -11 13 9 12
13 -7 28 -14 10 -29 40 -38 76 -25 95 -35 100 -53 23z m35 -49 c-3 -8 -6 -5
-6 6 -1 11 2 17 5 13 3 -3 4 -12 1 -19z"/>
<path d="M5757 11796 c-53 -63 -129 -98 -225 -104 -94 -6 -112 -14 -112 -51 0
-21 16 -43 70 -96 l70 -67 64 4 c83 5 210 66 244 118 21 31 23 43 18 99 -7 82
-33 135 -66 138 -19 2 -34 -8 -63 -41z m82 20 c7 -8 14 -30 18 -49 5 -31 1
-37 -38 -69 -67 -55 -177 -105 -279 -127 -40 -9 -47 -8 -68 12 -57 53 -51 87
14 87 112 0 220 44 281 114 41 48 54 54 72 32z m13 -215 c-24 -32 -79 -65
-156 -91 -82 -27 -118 -26 -156 7 l-32 27 83 26 c98 31 190 76 239 118 l35 30
3 -46 c2 -33 -2 -53 -16 -71z"/>
<path d="M5733 11435 c-18 -8 -33 -19 -33 -26 0 -8 4 -8 13 -1 6 5 28 17 47
25 19 9 28 16 20 16 -8 0 -30 -6 -47 -14z"/>
<path d="M7156 11145 c36 -34 37 -36 31 -92 -7 -73 -79 -299 -120 -376 -39
-75 -81 -110 -223 -187 -63 -34 -113 -65 -110 -67 10 -10 231 114 278 156 59
53 88 108 133 250 78 246 81 280 21 326 -48 36 -54 31 -10 -10z"/>
<path d="M7510 11140 c8 -5 24 -10 36 -10 41 0 172 -39 240 -71 88 -42 93 -44
69 -23 -39 32 -151 77 -240 95 -105 22 -128 24 -105 9z"/>
<path d="M7712 10655 c0 -27 3 -88 7 -135 l8 -85 0 105 c0 58 -3 119 -7 135
-7 26 -8 23 -8 -20z"/>
<path d="M7624 10364 c4 -10 14 -43 22 -73 15 -59 24 -75 24 -44 0 31 -29 121
-42 129 -8 5 -9 1 -4 -12z"/>
<path d="M5060 10050 c0 -5 5 -10 11 -10 5 0 7 5 4 10 -3 6 -8 10 -11 10 -2 0
-4 -4 -4 -10z"/>
<path d="M4493 9873 c-28 -6 -45 -26 -37 -47 5 -13 9 -14 20 -5 8 6 29 15 47
19 32 8 32 8 4 9 -16 1 -38 -4 -50 -11 -20 -10 -21 -10 -8 5 7 10 21 17 30 17
9 0 23 5 31 10 13 9 13 10 0 8 -8 0 -25 -3 -37 -5z"/>
<path d="M6442 9733 c11 -25 92 -142 96 -139 9 9 -77 146 -91 146 -5 0 -7 -3
-5 -7z"/>
<path d="M6978 9640 c25 -49 48 -87 51 -85 7 7 -78 175 -89 175 -5 0 12 -40
38 -90z"/>
<path d="M7373 9465 c6 -27 5 -28 -5 -7 -6 12 -14 22 -18 22 -8 0 40 -152 51
-160 3 -3 11 -14 18 -25 18 -30 6 83 -16 138 -21 54 -38 73 -30 32z"/>
<path d="M7620 9156 c0 -16 40 -170 46 -175 9 -9 -5 77 -22 132 -13 40 -24 59
-24 43z"/>
<path d="M6398 8993 c-12 -46 5 -86 56 -135 28 -26 58 -48 68 -48 9 0 43 10
75 21 95 35 107 54 40 61 -57 7 -164 54 -203 90 -28 27 -32 28 -36 11z m255
-130 c-7 -2 -19 -2 -25 0 -7 3 -2 5 12 5 14 0 19 -2 13 -5z"/>
<path d="M6841 8832 c1 -30 53 -117 72 -120 24 -5 69 7 63 16 -2 4 8 8 22 8
15 1 36 4 47 7 11 3 22 6 25 7 3 0 -26 13 -65 29 -38 16 -91 38 -117 49 -44
19 -48 20 -47 4z"/>
<path d="M7197 8713 c-4 -3 -7 -19 -7 -35 0 -21 9 -34 39 -54 22 -14 45 -23
52 -19 12 8 34 12 84 14 25 1 19 6 -50 42 -44 22 -84 45 -89 50 -12 11 -20 11
-29 2z"/>
<path d="M6217 8682 c-17 -19 -47 -84 -47 -102 0 -6 5 -8 12 -4 8 5 9 0 6 -14
-4 -12 -3 -24 2 -27 4 -2 13 16 20 41 7 25 23 61 36 79 19 28 20 34 7 39 -20
8 -18 8 -36 -12z m33 4 c0 -2 -8 -10 -17 -17 -16 -13 -17 -12 -4 4 13 16 21
21 21 13z"/>
<path d="M6968 6433 c12 -2 30 -2 40 0 9 3 -1 5 -23 4 -22 0 -30 -2 -17 -4z"/>
<path d="M6903 6423 c9 -2 23 -2 30 0 6 3 -1 5 -18 5 -16 0 -22 -2 -12 -5z"/>
<path d="M6848 6413 c6 -2 18 -2 25 0 6 3 1 5 -13 5 -14 0 -19 -2 -12 -5z"/>
<path d="M9868 5873 c12 -2 30 -2 40 0 9 3 -1 5 -23 4 -22 0 -30 -2 -17 -4z"/>
<path d="M9953 5863 c9 -2 23 -2 30 0 6 3 -1 5 -18 5 -16 0 -22 -2 -12 -5z"/>
<path d="M10018 5853 c7 -3 16 -2 19 1 4 3 -2 6 -13 5 -11 0 -14 -3 -6 -6z"/>
<path d="M10058 5843 c6 -2 18 -2 25 0 6 3 1 5 -13 5 -14 0 -19 -2 -12 -5z"/>
<path d="M10180 5805 c14 -8 30 -14 35 -14 6 0 -1 6 -15 14 -14 8 -29 14 -35
14 -5 0 1 -6 15 -14z"/>
<path d="M10503 5283 c9 -2 25 -2 35 0 9 3 1 5 -18 5 -19 0 -27 -2 -17 -5z"/>
<path d="M10448 5273 c7 -3 16 -2 19 1 4 3 -2 6 -13 5 -11 0 -14 -3 -6 -6z"/>
<path d="M10398 5263 c7 -3 16 -2 19 1 4 3 -2 6 -13 5 -11 0 -14 -3 -6 -6z"/>
<path d="M10358 5253 c7 -3 16 -2 19 1 4 3 -2 6 -13 5 -11 0 -14 -3 -6 -6z"/>
<path d="M10288 5233 c7 -3 16 -2 19 1 4 3 -2 6 -13 5 -11 0 -14 -3 -6 -6z"/>
<path d="M10150 5190 c-8 -5 -10 -10 -5 -10 6 0 17 5 25 10 8 5 11 10 5 10 -5
0 -17 -5 -25 -10z"/>
<path d="M10070 5160 c-8 -5 -10 -10 -5 -10 6 0 17 5 25 10 8 5 11 10 5 10 -5
0 -17 -5 -25 -10z"/>
<path d="M5353 4743 c32 -2 81 -2 110 0 29 2 3 3 -58 3 -60 0 -84 -1 -52 -3z"/>
<path d="M5228 4733 c12 -2 30 -2 40 0 9 3 -1 5 -23 4 -22 0 -30 -2 -17 -4z"/>
<path d="M5533 4733 c9 -2 25 -2 35 0 9 3 1 5 -18 5 -19 0 -27 -2 -17 -5z"/>
<path d="M5153 4723 c9 -2 23 -2 30 0 6 3 -1 5 -18 5 -16 0 -22 -2 -12 -5z"/>
<path d="M5598 4723 c6 -2 18 -2 25 0 6 3 1 5 -13 5 -14 0 -19 -2 -12 -5z"/>
<path d="M5098 4713 c6 -2 18 -2 25 0 6 3 1 5 -13 5 -14 0 -19 -2 -12 -5z"/>
<path d="M5648 4713 c6 -2 18 -2 25 0 6 3 1 5 -13 5 -14 0 -19 -2 -12 -5z"/>
<path d="M5058 4703 c7 -3 16 -2 19 1 4 3 -2 6 -13 5 -11 0 -14 -3 -6 -6z"/>
<path d="M4995 4690 c-13 -5 -14 -9 -5 -9 8 0 24 4 35 9 13 5 14 9 5 9 -8 0
-24 -4 -35 -9z"/>
<path d="M10973 3673 c9 -2 25 -2 35 0 9 3 1 5 -18 5 -19 0 -27 -2 -17 -5z"/>
<path d="M11043 3663 c9 -2 23 -2 30 0 6 3 -1 5 -18 5 -16 0 -22 -2 -12 -5z"/>
<path d="M11098 3653 c6 -2 18 -2 25 0 6 3 1 5 -13 5 -14 0 -19 -2 -12 -5z"/>
<path d="M8470 3554 c-8 -1 -48 -8 -88 -14 -40 -7 -71 -14 -69 -16 2 -2 49 2
103 11 54 8 115 16 134 18 24 3 19 4 -15 4 -27 0 -57 -1 -65 -3z"/>
<path d="M8990 3171 c-87 -33 -155 -66 -248 -123 -88 -53 -274 -189 -268 -195
2 -3 33 18 68 45 156 121 319 216 461 267 50 19 85 34 77 34 -8 0 -49 -13 -90
-28z"/>
<path d="M9797 2061 c74 -69 318 -196 444 -231 69 -19 270 -39 257 -25 -3 3
-52 11 -108 16 -57 4 -135 18 -174 31 -88 27 -242 105 -361 181 -59 38 -79 47
-58 28z"/>
<path d="M7838 1813 c29 -2 74 -2 100 0 26 2 2 3 -53 3 -55 0 -76 -1 -47 -3z"/>
<path d="M7748 1803 c6 -2 18 -2 25 0 6 3 1 5 -13 5 -14 0 -19 -2 -12 -5z"/>
<path d="M8003 1803 c9 -2 23 -2 30 0 6 3 -1 5 -18 5 -16 0 -22 -2 -12 -5z"/>
<path d="M7653 1780 c-63 -22 -158 -73 -193 -101 l-25 -21 30 18 c79 48 126
71 195 96 41 15 68 27 60 27 -8 0 -39 -9 -67 -19z"/>
<path d="M8070 1790 c34 -11 60 -11 35 0 -11 5 -29 8 -40 8 -16 0 -15 -2 5 -8z"/>
<path d="M10491 1774 c0 -11 3 -14 6 -6 3 7 2 16 -1 19 -3 4 -6 -2 -5 -13z"/>
<path d="M8145 1770 c27 -12 43 -12 25 0 -8 5 -22 9 -30 9 -10 0 -8 -3 5 -9z"/>
<path d="M8250 1725 c207 -111 335 -267 391 -480 38 -141 30 -377 -17 -500 -5
-11 0 -15 17 -15 17 0 20 3 11 9 -11 6 -10 20 5 72 25 91 25 315 0 423 -25
106 -96 241 -168 319 -57 63 -166 145 -246 186 -69 35 -63 23 7 -14z"/>
<path d="M10482 1670 c0 -19 2 -27 5 -17 2 9 2 25 0 35 -3 9 -5 1 -5 -18z"/>
<path d="M10472 1600 c0 -14 2 -19 5 -12 2 6 2 18 0 25 -3 6 -5 1 -5 -13z"/>
<path d="M10461 1544 c0 -11 3 -14 6 -6 3 7 2 16 -1 19 -3 4 -6 -2 -5 -13z"/>
<path d="M10426 1445 c-9 -26 -7 -32 5 -12 6 10 9 21 6 23 -2 3 -7 -2 -11 -11z"/>
<path d="M10406 1395 c-9 -26 -7 -32 5 -12 6 10 9 21 6 23 -2 3 -7 -2 -11 -11z"/>
<path d="M10295 1184 c-9 -15 -12 -23 -6 -20 11 7 35 46 28 46 -3 0 -12 -12
-22 -26z"/>
<path d="M10234 1098 l-19 -23 23 19 c21 18 27 26 19 26 -2 0 -12 -10 -23 -22z"/>
<path d="M10174 1028 l-19 -23 23 19 c12 11 22 21 22 23 0 8 -8 2 -26 -19z"/>
<path d="M10094 958 l-19 -23 23 19 c12 11 22 21 22 23 0 8 -8 2 -26 -19z"/>
<path d="M10049 923 c-13 -16 -12 -17 4 -4 16 13 21 21 13 21 -2 0 -10 -8 -17
-17z"/>
<path d="M10004 894 c-18 -14 -18 -15 4 -4 12 6 22 13 22 15 0 8 -5 6 -26 -11z"/>
<path d="M9588 713 c7 -3 16 -2 19 1 4 3 -2 6 -13 5 -11 0 -14 -3 -6 -6z"/>
<path d="M8748 703 c7 -3 16 -2 19 1 4 3 -2 6 -13 5 -11 0 -14 -3 -6 -6z"/>
<path d="M8788 693 c7 -3 16 -2 19 1 4 3 -2 6 -13 5 -11 0 -14 -3 -6 -6z"/>
<path d="M8838 683 c7 -3 16 -2 19 1 4 3 -2 6 -13 5 -11 0 -14 -3 -6 -6z"/>
<path d="M9468 683 c7 -3 16 -2 19 1 4 3 -2 6 -13 5 -11 0 -14 -3 -6 -6z"/>
<path d="M8888 673 c6 -2 18 -2 25 0 6 3 1 5 -13 5 -14 0 -19 -2 -12 -5z"/>
<path d="M9408 673 c6 -2 18 -2 25 0 6 3 1 5 -13 5 -14 0 -19 -2 -12 -5z"/>
<path d="M8943 663 c9 -2 23 -2 30 0 6 3 -1 5 -18 5 -16 0 -22 -2 -12 -5z"/>
<path d="M9333 663 c9 -2 23 -2 30 0 6 3 -1 5 -18 5 -16 0 -22 -2 -12 -5z"/>
<path d="M9072 653 c37 -2 100 -2 140 0 40 1 10 3 -67 3 -77 0 -110 -1 -73 -3z"/>
<path d="M6970 516 c0 -2 8 -10 18 -17 15 -13 16 -12 3 4 -13 16 -21 21 -21
13z"/>
<path d="M9351 5563 c-10 -26 -10 -27 4 -9 8 11 15 23 15 28 0 15 -7 8 -19
-19z"/>
<path d="M9284 5514 c-18 -14 -18 -15 4 -4 12 6 22 13 22 15 0 8 -5 6 -26 -11z"/>
<path d="M9235 5490 c-3 -6 1 -7 9 -4 18 7 21 14 7 14 -6 0 -13 -4 -16 -10z"/>
<path d="M5670 5386 c0 -2 7 -7 16 -10 8 -3 12 -2 9 4 -6 10 -25 14 -25 6z"/>
<path d="M5785 5242 c77 -79 149 -148 160 -153 11 -6 4 4 -15 21 -19 18 -34
35 -33 39 1 3 -40 49 -90 102 -51 52 -75 77 -54 54 63 -70 41 -63 -35 10 -40
39 -10 5 67 -73z m60 -42 c27 -27 47 -50 44 -50 -3 0 -27 23 -54 50 -27 28
-47 50 -44 50 3 0 27 -22 54 -50z"/>
<path d="M8690 5319 l-25 -21 29 17 c19 11 40 15 65 11 26 -4 30 -3 16 4 -32
14 -58 11 -85 -11z"/>
<path d="M8770 5305 c-19 -7 -28 -13 -20 -13 8 0 31 6 50 13 19 7 28 13 20 13
-8 0 -31 -6 -50 -13z"/>
<path d="M8631 5286 c-18 -10 -21 -15 -10 -20 8 -3 1 -4 -16 -1 -25 4 -27 3
-12 -6 12 -7 26 -7 45 0 20 7 22 10 8 10 -20 1 -20 1 0 16 24 18 17 19 -15 1z"/>
<path d="M8678 5273 c7 -3 16 -2 19 1 4 3 -2 6 -13 5 -11 0 -14 -3 -6 -6z"/>
<path d="M8555 5250 c3 -5 14 -10 23 -10 15 0 15 2 2 10 -20 13 -33 13 -25 0z"/>
<path d="M8455 5230 c-80 -21 -63 -25 32 -9 34 6 60 15 57 20 -6 11 -1 11 -89
-11z"/>
<path d="M9050 5320 c-8 -5 -10 -10 -5 -10 6 0 17 5 25 10 8 5 11 10 5 10 -5
0 -17 -5 -25 -10z"/>
<path d="M8996 5301 c-4 -5 3 -7 14 -4 23 6 26 13 6 13 -8 0 -17 -4 -20 -9z"/>
<path d="M9081 5300 c0 -8 4 -22 9 -30 12 -18 12 -2 0 25 -6 13 -9 15 -9 5z"/>
<path d="M8980 5265 c0 -5 5 -17 10 -25 5 -8 10 -10 10 -5 0 6 -5 17 -10 25
-5 8 -10 11 -10 5z"/>
<path d="M9016 5170 c9 -36 9 -36 64 -10 27 13 48 25 46 27 -2 3 -23 -5 -46
-17 -23 -12 -43 -20 -44 -18 -2 2 -8 12 -15 23 -11 18 -11 18 -5 -5z"/>
<path d="M5930 4998 c-29 -45 -31 -52 -5 -20 23 28 29 31 44 20 14 -12 15 -11
2 5 -18 22 -23 22 -41 -5z"/>
<path d="M5950 4960 c-6 -11 -8 -20 -6 -20 3 0 10 9 16 20 6 11 8 20 6 20 -3
0 -10 -9 -16 -20z"/>
<path d="M5872 4913 c-10 -16 -24 -38 -31 -50 -21 -41 -5 -24 27 27 33 54 36
68 4 23z"/>
<path d="M5869 4833 c-12 -21 -24 -40 -25 -42 -2 -2 -12 2 -21 10 -17 12 -17
12 -1 -6 11 -12 21 -15 26 -10 15 17 54 85 49 85 -3 0 -16 -17 -28 -37z"/>
<path d="M3494 13145 c56 -55 126 -120 156 -144 l55 -43 -60 53 c-33 29 -103
94 -156 144 l-95 90 100 -100z"/>
<path d="M3710 12957 c0 -3 18 -20 40 -37 22 -17 40 -29 40 -27 0 3 -18 20
-40 37 -22 17 -40 29 -40 27z"/>
<path d="M3800 12886 c0 -2 8 -10 18 -17 15 -13 16 -12 3 4 -13 16 -21 21 -21
13z"/>
</g>
</svg>
